<?xml version="1.0" encoding="UTF-8"?>
<svg id="Layer_2" data-name="Layer 2" xmlns="http://www.w3.org/2000/svg" viewBox="0 0 2519.87 1476.59">
  <defs>
    <style>
      .cls-1 {
        fill: #f5cc00;
      }

      .cls-2, .cls-3 {
        opacity: .5;
      }

      .cls-2, .cls-4 {
        fill: #bf643a;
      }

      .cls-5 {
        fill: #fff;
      }

      .cls-6 {
        fill: #7252b7;
      }

      .cls-7, .cls-8 {
        fill: #bfa564;
      }

      .cls-9 {
        fill: #fff2d2;
      }

      .cls-10 {
        fill: #ff864d;
      }

      .cls-11 {
        fill: #007ba7;
      }

      .cls-12 {
        fill: #629d89;
      }

      .cls-13 {
        fill: #974245;
      }

      .cls-14 {
        fill: #ffba9a;
      }

      .cls-15 {
        opacity: .6;
      }

      .cls-15, .cls-16 {
        fill: #ff9498;
      }

      .cls-17 {
        fill: #2a5044;
      }

      .cls-18 {
        fill: #36295b;
      }

      .cls-3 {
        fill: #ff6e73;
      }

      .cls-19 {
        fill: #572628;
      }

      .cls-8 {
        opacity: .3;
      }

      .cls-20 {
        fill: #dec5ff;
      }

      .cls-21 {
        fill: #013d55;
      }

      .cls-22 {
        fill: #c2afea;
      }
    </style>
  </defs>
  <g id="OBJECTS">
    <g>
      <g>
        <ellipse class="cls-7" cx="2383.87" cy="1273.55" rx="16" ry="15.45"/>
        <path class="cls-7" d="m1726.21,561.37c-9.93,0-18-7.83-18-17.45s8.07-17.46,18-17.46,18,7.83,18,17.46-8.07,17.45-18,17.45Zm0-30.91c-7.72,0-14,6.04-14,13.46s6.28,13.45,14,13.45,14-6.04,14-13.45-6.28-13.46-14-13.46Z"/>
        <path class="cls-7" d="m2411.87,331c-9.93,0-18-7.83-18-17.46s8.07-17.46,18-17.46,18,7.83,18,17.46-8.07,17.46-18,17.46Zm0-30.91c-7.72,0-14,6.04-14,13.46s6.28,13.46,14,13.46,14-6.04,14-13.46-6.28-13.46-14-13.46Z"/>
        <ellipse class="cls-7" cx="291.87" cy="541" rx="16" ry="15.45"/>
        <g>
          <path class="cls-7" d="m1530.21,151.93h-116c-1.11,0-2-.89-2-2s.89-2,2-2h116c1.11,0,2,.89,2,2s-.89,2-2,2Z"/>
          <path class="cls-7" d="m1530.21,183.93h-54c-1.11,0-2-.89-2-2s.89-2,2-2h54c1.11,0,2,.89,2,2s-.89,2-2,2Z"/>
          <path class="cls-7" d="m1453.21,183.93h-39c-1.11,0-2-.89-2-2s.89-2,2-2h39c1.11,0,2,.89,2,2s-.89,2-2,2Z"/>
          <path class="cls-7" d="m1530.21,215.93h-116c-1.11,0-2-.89-2-2s.89-2,2-2h116c1.11,0,2,.89,2,2s-.89,2-2,2Z"/>
        </g>
      </g>
      <g>
        <g>
          <path class="cls-5" d="m1341.03,925.6h-.17v-52.65h.17l178.59-188.3c66.76-70.39,57.2-173.64-16.03-233.8-14.18-11.65-32.08-17.86-50.43-17.85l-314.02.05c-18.35,0-36.23,6.21-50.4,17.85-73.22,60.13-82.81,163.34-16.11,233.74l178.41,188.31h.5v52.65h-.5l-178.41,188.31c-66.7,70.4-57.11,173.61,16.11,233.74,14.18,11.64,32.06,17.85,50.4,17.85l314.02.05c18.35,0,36.25-6.2,50.43-17.85,73.24-60.16,82.8-163.4,16.03-233.8l-178.59-188.3Z"/>
          <g>
            <path class="cls-1" d="m1458.41,680.45c-3.15-7.34-11.09-11.51-19.05-10.83-130.93,11.22-205.63-113.35-287.37-103.93-39.61,4.57-64.44,45.75-50.43,83.08,18.77,50.01,78,100.37,99.71,123.29l75.75,79.73v133.84h.11c-.15.08-.22.11-.11,0v143.09c0,4.14,3.35,7.49,7.49,7.49h7.86c4.14,0,7.49-3.35,7.49-7.49v-41.02c0-4.14,3.35-7.49,7.49-7.49h0c4.14,0,7.49-3.35,7.49-7.49v-87.09l.07-133.84,75.61-79.72c26.75-28.2,78.68-66.45,67.88-91.61Z"/>
            <path class="cls-1" d="m1288.37,1203.55h0c-5.8,0-10.5-4.7-10.5-10.5v-28c0-5.8,4.7-10.5,10.5-10.5h0c5.8,0,10.5,4.7,10.5,10.5v28c0,5.8-4.7,10.5-10.5,10.5Z"/>
            <path class="cls-1" d="m1389.87,1363.9h-143l-68.33,1.65c117.33-182.67,161.33-60.89,219.33-13.78l-8,12.13Z"/>
          </g>
        </g>
        <g>
          <rect class="cls-6" x="1007.18" y="1352.77" width="577.94" height="91.69"/>
          <rect class="cls-18" x="1007.18" y="1398.75" width="577.94" height="45.71"/>
          <rect class="cls-6" x="963.72" y="1423.47" width="664.85" height="50.48" rx="23.42" ry="23.42"/>
        </g>
      </g>
      <g>
        <path class="cls-8" d="m314.87,1182.01c4.67-11.37,7.52-23.03,8.7-34.68l37.04-5.23-7.96-56.33-36.52,5.16c-8.55-22.57-23.6-42.62-43.91-57.11l13.86-33.76-52.63-21.61-13.86,33.76c-24.63-3.96-49.43-.27-71.37,9.78l-22.36-29.33-45.24,34.49,22.68,29.75c-7.34,9.12-13.51,19.42-18.18,30.79-4.97,12.1-7.87,24.52-8.9,36.89l-37.79,5.34,7.96,56.33,38.26-5.4c8.36,20.95,22.38,39.63,41.04,53.54l-14.09,34.33,57.23,23.49,14.09-34.33c23.05,3.22,46.15-.22,66.82-9.25l23.43,30.73,45.24-34.49-23.14-30.35c7.96-9.52,14.62-20.4,19.59-32.5Zm-141.42,17.51c-35.71-14.66-52.78-55.5-38.12-91.22,14.66-35.71,55.51-52.78,91.22-38.12,35.71,14.66,52.78,55.51,38.12,91.22-14.67,35.72-55.51,52.78-91.22,38.12Z"/>
        <path class="cls-8" d="m150.08,842.34c3.56-5.94,6.14-12.21,7.78-18.6l21.1.21.32-32.08-20.8-.21c-2.86-13.31-9.56-25.76-19.66-35.56l10.58-17.66-27.52-16.5-10.58,17.66c-13.4-4.29-27.54-4.33-40.63-.58l-9.99-18.25-28.14,15.41,10.14,18.51c-4.86,4.46-9.18,9.69-12.74,15.63-3.79,6.33-6.46,13.01-8.08,19.82l-21.53-.22-.32,32.08,21.79.22c2.89,12.39,9.13,23.99,18.36,33.32l-10.76,17.95,29.93,17.94,10.76-17.95c12.58,3.74,25.76,3.78,38.05.49l10.47,19.11,28.14-15.41-10.34-18.88c5.24-4.64,9.88-10.14,13.67-16.47Zm-80.34-2.19c-18.68-11.19-24.75-35.41-13.55-54.09,11.19-18.68,35.41-24.74,54.09-13.55,18.68,11.19,24.74,35.41,13.55,54.09-11.2,18.68-35.41,24.74-54.09,13.55Z"/>
      </g>
      <g>
        <rect class="cls-8" x="1796.63" y="116.68" width="434.67" height="293.76" rx="41.2" ry="41.2"/>
        <g>
          <rect class="cls-9" x="1852.76" y="275.97" width="42.99" height="75.95"/>
          <rect class="cls-9" x="1922.61" y="219.38" width="42.99" height="132.55"/>
          <rect class="cls-9" x="1992.47" y="278.33" width="42.99" height="73.6"/>
          <rect class="cls-9" x="2062.33" y="252.63" width="42.99" height="99.29"/>
          <rect class="cls-9" x="2132.19" y="163.72" width="42.99" height="188.21"/>
        </g>
      </g>
      <g>
        <g>
          <g>
            <rect class="cls-7" x="508.81" y="882.82" width="348" height="6"/>
            <rect class="cls-7" x="508.81" y="745.49" width="348" height="6"/>
            <rect class="cls-7" x="508.81" y="1022.82" width="348" height="6"/>
            <rect class="cls-7" x="508.81" y="1162.82" width="348" height="6"/>
            <rect class="cls-7" x="508.81" y="1302.82" width="348" height="6"/>
          </g>
          <rect class="cls-7" x="507.81" y="702.88" width="6" height="772.67"/>
          <rect class="cls-7" x="851.81" y="702.88" width="6" height="772.67"/>
        </g>
        <g>
          <path class="cls-10" d="m682.53,157.55c95.33-4,232.94,28.71,375.11,57.6l-20.44,66.4-310-17.33-44.67-106.67Z"/>
          <g>
            <g>
              <polygon class="cls-13" points="706.42 792.38 693.2 885.82 814.01 885.82 759.01 840.64 768.21 791.29 706.42 792.38"/>
              <path class="cls-11" d="m766.46,460.98l76.89,78.98c17.67,18.16,23.66,44.7,15.48,68.68l-68.71,201.58-111.3-1.33,60.21-215.31-145.16-150.02,172.59,17.43Z"/>
              <rect class="cls-19" x="732.48" y="846.59" width="28.91" height="4" transform="translate(-343.67 550.95) rotate(-33.38)"/>
            </g>
            <g>
              <polygon class="cls-13" points="626.46 933.49 622.53 1025.82 743.35 1025.82 688.34 980.64 682.45 929.56 626.46 933.49"/>
              <path class="cls-11" d="m550.81,457.55c31.26,164.88,48.83,330.27,57.33,496h96l21-258-45-273-129.33,35Z"/>
              <rect class="cls-19" x="657.03" y="989.59" width="35.14" height="4" transform="translate(-471.08 636.96) rotate(-38.57)"/>
            </g>
            <path class="cls-21" d="m705.64,953.69l-2.98-.3c.2-2,19.72-200.47,20.13-247.26.41-46.68-30.07-182.89-30.38-184.27l-.31-1.36,31.34-9.4.86,2.88-28.66,8.6c3.21,14.47,30.54,139.1,30.15,183.59-.41,46.92-19.95,245.53-20.14,247.53Z"/>
          </g>
          <g>
            <path class="cls-5" d="m1090.64,61.22c-10.4-29.89-38.18-52.55-95.46-60.73-35-5-85.8,28.58-108.19,100.19-22.39,71.61-6.06,136.29,33.46,152.8,50.97,21.29,84.12,19.99,107.15,6,26.63-11.61,52.87-44.91,66.55-88.64,13.47-43.06,11.15-84.75-3.51-109.61Z"/>
            <ellipse class="cls-8" cx="1030.68" cy="150.99" rx="116.5" ry="66.5" transform="translate(578.94 1089.62) rotate(-72.63)"/>
            <path class="cls-1" d="m1039.55,215.23c5.72-7.43,10.23-16,3.71-18.84-.04-.02-.09-.04-.13-.05-4.28-1.8-9.08-1.34-13.61-.49-4.53.85-9.08,2.07-13.66,1.7-7.14-.59-13.5-4.95-19.26-9.54-5.76-4.59-11.46-9.62-18.29-11.93-6.84-2.3-15.59,1.75-19.92,7.91-.52,21.44,1.1,61.18,30.87,61.19,15.19,0,29.01-8.09,39.76-18.26,1.71-1.62,6.43-6.36,10.53-11.69Z"/>
          </g>
          <g>
            <path class="cls-14" d="m1073.35,221.92c5.81,6.36,10.49,8.15,5.34,16.25-5.33,8.38-9.9-.41-15.71-6.76-5.81-6.36-8.2-13.63-5.34-16.25,2.86-2.62,9.9.41,15.71,6.76Z"/>
            <path class="cls-14" d="m1082.69,211.89c4.68,7.23,7.13,10.65,2.57,16.91-4.98,6.85-9.69-2.04-14.37-9.28-4.68-7.23-5.83-14.8-2.57-16.91,3.26-2.11,9.69,2.04,14.37,9.28Z"/>
            <path class="cls-14" d="m1067.68,234.25c5.81,6.36,10.85,7.3,4.79,16.76-5,7.8-10.45.1-16.27-6.26-5.81-6.36-7.96-13.86-4.79-16.76,3.17-2.9,10.45-.1,16.27,6.26Z"/>
            <path class="cls-14" d="m1050.61,254.72c6.13,4.34,9.29,6.98,14.65,2.87,4.61-3.54-1.43-8.52-7.56-12.87-6.13-4.34-12.69-5.63-14.65-2.87-1.96,2.76,1.43,8.52,7.56,12.87Z"/>
          </g>
          <g>
            <polygon class="cls-10" points="680.23 161.46 797.2 204.21 766.46 460.98 550.81 457.55 562.34 274.09 680.23 161.46"/>
            <path class="cls-10" d="m649.2,236.21l32.28-80c-49.61-1.33-118.95-12-120.28,146.67l125.33,10.67s181.51-68.07,196-74.67l2.67-77.17c-70.08,23.54-236,74.5-236,74.5Z"/>
            <path class="cls-14" d="m961.87,176.05c.7-9.4-1.5-19-1.5-19,0,0,15.5-17-1-16-4.71.29-35.83,7.81-74.21,20.7l-2.65,75.65c81.69-37.16,78.36-47.85,79.36-61.35Z"/>
            <rect class="cls-13" x="762.59" y="178.15" width="125.18" height="3" transform="translate(-16.88 243.86) rotate(-16.64)"/>
            <path class="cls-13" d="m674.99,311.1c-11.14,0-22.32-1.23-33.38-3.71l-43.4-9.72.66-2.93,43.4,9.72c29.74,6.66,60.41,4.13,88.66-7.31l151.01-61.15,1.12,2.78-151.01,61.15c-18.32,7.42-37.63,11.16-57.06,11.16Z"/>
            <g>
              <rect class="cls-4" x="932.86" y="159.8" width="28.02" height="2" transform="translate(-8.48 259.41) rotate(-15.53)"/>
              <rect class="cls-4" x="933.36" y="171.3" width="28.02" height="2" transform="translate(-11.54 259.96) rotate(-15.53)"/>
              <rect class="cls-4" x="932.36" y="184.3" width="28.02" height="2" transform="translate(-15.06 260.17) rotate(-15.53)"/>
            </g>
          </g>
          <g>
            <path class="cls-14" d="m723.76,100.91v75.88c0,13.04-12.78,22.64-26.05,19.58-16.67-3.83-28.59-17.9-29.04-34.3l-1.76-61.16h56.85Z"/>
            <path class="cls-2" d="m723.76,123.98v41.92c-27.32-9.08-37.42-36.97-37.42-36.97l37.42-4.95Z"/>
            <path class="cls-14" d="m754.28,101.56c-.47,5.85-1.25,11.71-2.37,17.13-2.58,12.87-6.97,23.37-14.42,26.43-18.76,7.7-43.55-3.27-53.24-16.18-9.68-12.91-12.39-76.91-12.39-76.91l29.05-19.93,53.8,22.08s1.72,23.93-.43,47.38Z"/>
            <path class="cls-21" d="m670.8,101.52c10.36-7.79,17.78-19.34,19.91-37.66,45.07,19.7,70.08,12.48,89.16-17.24,0,0-21.67-.4-49.54-17.98-29.32-18.49-103.64-1.89-73.51,71.27l13.99,1.61Z"/>
            <path class="cls-14" d="m680.72,85.24c5.47,8.67,3.9,19.49-3.51,24.17-7.41,4.68-17.86,1.45-23.33-7.22-5.47-8.67-3.9-19.49,3.51-24.17,7.41-4.68,17.86-1.45,23.33,7.22Z"/>
            <g>
              <path class="cls-21" d="m726.65,95.67c0,2.33-1.6,4.22-3.57,4.22s-3.57-1.89-3.57-4.22,1.6-4.22,3.57-4.22,3.57,1.89,3.57,4.22Z"/>
              <path class="cls-21" d="m749.72,96.32c0,2.33-1.6,4.22-3.57,4.22s-3.57-1.89-3.57-4.22,1.6-4.22,3.57-4.22,3.57,1.89,3.57,4.22Z"/>
              <path class="cls-21" d="m735.91,100.65c1.21.84,2.4,1.66,3.59,2.57,1.19.92,2.36,1.95,3.3,3.46.95,1.54.85,3.9-.14,5.3-.96,1.43-2.21,2.38-3.53,3.16l-.61-.71c.85-1.2,1.79-2.29,2.3-3.45.54-1.16.47-2.11-.1-3.14-.52-1.07-1.61-2.04-2.57-3.11-1-1.05-2.07-2.14-2.91-3.43l.68-.65Z"/>
              <path class="cls-21" d="m727.11,84.65c.22,2.67-3.61,2.66-8.3,3.06-4.69.39-8.59-.34-8.69-1.64-.27-3.17,12.29-3.54,14.15-3.63.51-.03,1.03-.04,1.52.12.89.3,1.26,1.23,1.33,2.09Z"/>
              <path class="cls-21" d="m741.87,85.25c-.12,2.73,2.87,2.81,6.53,3.3,3.66.5,6.68-.17,6.74-1.5.14-3.25-9.65-3.88-11.09-4.01-.4-.04-.81-.07-1.18.09-.69.29-.96,1.23-1,2.12Z"/>
              <g>
                <path class="cls-5" d="m739.08,126.6c.73-1.08,1.37-2.33,1.87-3.8l-22.58-2.6c.55,1.58,1.23,2.99,2.01,4.24,3.91,1.34,11.16,3.22,18.7,2.16Z"/>
                <path class="cls-21" d="m720.38,124.44c4.96,7.95,13.96,9.14,18.7,2.16-7.54,1.05-14.79-.83-18.7-2.16Z"/>
              </g>
              <circle class="cls-15" cx="704.75" cy="108.33" r="10.04" transform="translate(436.73 769.06) rotate(-76.66)"/>
              <path class="cls-15" d="m754.28,101.56c-.47,5.85-1.25,11.71-2.37,17.13-2.32-1.81-3.79-4.65-3.79-7.83,0-4.17,2.54-7.75,6.15-9.3Z"/>
            </g>
            <path class="cls-21" d="m671.29,98.2c-1.11-2.41-2.03-4.76-3.59-6.58-1.47-1.9-3.5-3.09-5.9-4.18l.17-.92c2.81-.15,5.73,1.32,7.57,3.6,1.79,2.33,2.64,5.14,2.66,7.88l-.92.19Z"/>
          </g>
        </g>
        <g>
          <circle class="cls-22" cx="356.27" cy="148.82" r="95.11"/>
          <polygon class="cls-22" points="414.21 141.9 491.16 207.62 408.15 197.24 414.21 141.9"/>
          <g>
            <circle class="cls-5" cx="305.27" cy="148.82" r="12.5"/>
            <circle class="cls-5" cx="356.27" cy="148.82" r="12.5"/>
            <circle class="cls-5" cx="407.27" cy="148.82" r="12.5"/>
          </g>
        </g>
      </g>
      <g>
        <rect class="cls-8" x="2341.87" y="970.65" width="178" height="97.4" rx="27.3" ry="27.3"/>
        <g>
          <circle class="cls-9" cx="2473.69" cy="1019.35" r="10.5"/>
          <circle class="cls-9" cx="2430.87" cy="1019.35" r="10.5"/>
          <circle class="cls-9" cx="2388.05" cy="1019.35" r="10.5"/>
        </g>
      </g>
      <g>
        <g>
          <rect class="cls-9" x="1900.06" y="1162.59" width="300.3" height="311"/>
          <path class="cls-7" d="m2203.37,1476.59h-306.3v-317h306.3v317Zm-300.3-6h294.3v-305h-294.3v305Z"/>
        </g>
        <g>
          <circle class="cls-1" cx="2322.75" cy="668.81" r="95.11"/>
          <polygon class="cls-1" points="2264.82 661.89 2187.86 727.61 2270.87 717.23 2264.82 661.89"/>
          <path class="cls-5" d="m2319.78,717.5c-2.16,4.22-8.13,4.37-10.5.27l-29.26-50.71c-2.06-3.56-.83-8.12,2.73-10.17,3.56-2.06,8.12-.84,10.17,2.73l21.06,36.49,38.22-74.85c1.83-3.59,6.16-5.44,9.85-3.79,3.93,1.75,5.54,6.41,3.61,10.19l-45.88,89.84Z"/>
        </g>
        <g>
          <g>
            <g>
              <polygon class="cls-21" points="1929.42 1382.45 1946.81 1474.78 1812.53 1474.78 1878.81 1435.55 1873.43 1378.52 1929.42 1382.45"/>
              <path class="cls-19" d="m1882.38,1157.9l63.4,240.61h-90.24s-178.01-314.97-34.01-345.97l60.84,105.36Z"/>
            </g>
            <g>
              <polygon class="cls-11" points="1967.42 1383.21 1984.81 1475.55 1850.53 1475.55 1916.81 1436.31 1911.43 1379.29 1967.42 1383.21"/>
              <path class="cls-13" d="m2147.98,1026.98s61.22,191.9-222.78,137.9l47.83,245.43-75.49-1.03s-175.56-310.16-61.73-358.42l312.17-23.88Z"/>
              <rect class="cls-21" x="1927.34" y="1428.2" width="4" height="27.46" transform="translate(-175.76 2612.43) rotate(-65.85)"/>
            </g>
          </g>
          <g>
            <path class="cls-16" d="m1956.61,1019.27l-26.8,29.8-94,1.04c1-29.72,57-43.04,57-43.04l63.8,12.2Z"/>
            <path class="cls-12" d="m1998.81,972.27l-42.2,47-64.08-7.72c5.33-151.33,72.96-196.68,72.96-196.68l33.32,157.4Z"/>
            <path class="cls-12" d="m1988.81,800.55s-66.95,19.67-64,131c1.7,64.1,4,105,4,105l207,2-34-177-113-61Z"/>
            <g>
              <rect class="cls-6" x="1820.27" y="1039.44" width="114.87" height="19.78"/>
              <polygon class="cls-20" points="1838.85 1059.21 1716.28 1059.21 1640.96 875.55 1763.53 875.55 1838.85 1059.21"/>
            </g>
            <rect class="cls-17" x="1861.56" y="941.75" width="141.02" height="3" transform="translate(869.84 2812.54) rotate(-86.41)"/>
            <path class="cls-16" d="m1982.87,1010.3s-106.75-21.75-112.06,15.99c0,0-1.66,4.35,4.64,2.98,0,0-7.18,15.83,19.05,8.5,0,0-3.68,3.32,10.11,4.11,13.79.79,91.26,16.42,91.26,16.42l-13-48Z"/>
            <path class="cls-13" d="m1997.25,1059.6l-1.59-.32c-.77-.16-77.55-15.62-91.12-16.4-9.29-.54-10.95-2.23-11.38-3.46-.03-.08-.05-.16-.07-.23-9.24,2.36-15.32,1.96-18.04-1.2-2.03-2.37-1.62-5.57-1.1-7.48-1.58.11-2.75-.27-3.45-1.11-1.27-1.51-.43-3.71-.32-3.96,4.16-15.94,24.56-23.55,60.51-22.43,26.5.8,52.12,6.28,52.38,6.33l.59.13,13.58,50.15Zm-98.93-23.94l-3.16,2.85s-.14.17-.11.24c.03.07.71,1.62,9.61,2.12,12.77.73,78.41,13.83,89.81,16.12l-12.42-45.84c-8.35-1.71-100.91-19.79-109.98,14.9-.21.55-.43,1.58-.04,2.05.41.48,1.57.55,3.19.2l1.94-.42-.82,1.81s-1.96,4.45.23,7c1.6,1.86,5.96,3.39,17.64.12l4.1-1.14Z"/>
            <g>
              <path class="cls-13" d="m1894.5,1038.77c-.31,0-.62-.15-.82-.42-.32-.45-.22-1.07.23-1.39.39-.28,9.85-6.87,27.86-1.48.53.16.83.71.67,1.24-.16.53-.71.85-1.24.67-17-5.09-26.03,1.12-26.12,1.19-.18.12-.38.19-.58.19Z"/>
              <path class="cls-13" d="m1878.71,1040.63c-.12,0-.24-.02-.36-.07-.51-.2-.77-.77-.57-1.29.23-.59,5.95-14.63,36.58-17.54.55-.07,1.04.35,1.09.9.05.55-.35,1.04-.9,1.09-29.25,2.77-34.85,16.13-34.9,16.27-.16.39-.54.63-.93.63Z"/>
              <path class="cls-13" d="m1875.44,1030.27c-.26,0-.52-.1-.71-.3-.39-.39-.39-1.02,0-1.41.48-.48,11.94-11.71,25.79-16.29.51-.17,1.09.11,1.26.64.17.52-.11,1.09-.64,1.26-13.4,4.43-24.89,15.7-25,15.81-.2.19-.45.29-.7.29Z"/>
            </g>
            <path class="cls-12" d="m1985.78,801.67l109.03,184.88-122.2,21,16.58,50c176.75,32.46,180.61-56,180.61-56,15.53-253.22-178.41-203.75-184.03-199.88Z"/>
            <path class="cls-17" d="m1972.2,1008.83l-.35-2.98,101.38-12.07c12.04-1.43,21.06-12.05,20.54-24.16l-3.02-71.01,3-.12,3.02,71.01c.58,13.67-9.6,25.64-23.19,27.26l-101.38,12.07Z"/>
            <path class="cls-17" d="m2000.02,856.06c-1.01,0-2-.07-2.97-.21-6.33-.91-11.85-4.77-16.42-11.46l2.48-1.69c4.07,5.97,8.91,9.39,14.37,10.18,7.57,1.09,16.81-2.78,27.44-11.49l1.9,2.32c-10.01,8.21-19.01,12.35-26.8,12.35Z"/>
          </g>
          <g>
            <path class="cls-16" d="m2015.31,827.19l-.23.09c-9.93,3.68-20.92-1.63-24.22-11.69l-2.83-8.65-13.8-37.24-2.6-7.04,58.88-21.76,10.86,30.64c7.99,22.55-3.61,47.35-26.05,55.65Z"/>
            <path class="cls-13" d="m2020.87,752.71c-6.08,21.67-18.33,37-35.33,47.5l-11.31-30.52,46.64-16.98Z"/>
            <path class="cls-21" d="m1965.39,658.43c-75.52-26.88-89.52,58.45-12.02,72.29l12.02-72.29Z"/>
            <path class="cls-16" d="m2043.15,713.01l-20.8,44.52s-41.52,33.24-62.88,27.28c-8.4-2.32-15.32-12.92-19.92-27.16-1.52-4.76-2.8-9.96-3.76-15.36-3.48-19.6-3.04-42.36,2.88-60.12l65.28,2.36,39.2,28.48Z"/>
            <path class="cls-21" d="m1938.68,682.16c1.7-4.67,31.12,6.94,34.37,8.88,10.22,6.12,13.54,22.03,18.07,32.92,9.25,22.25,17.21,42.11,38,52.5,2,1-7.97,79.06,20.65,85.92,15.29,3.67,29.1-9.84,32.32-25.88,5.23-26.03-3.72-39.96-30.89-66.29,30-146.67-100.67-138.67-112.52-88.05Z"/>
            <g>
              <path class="cls-21" d="m1964.19,730.28c.07,2.33,1.72,4.16,3.69,4.1,1.97-.06,3.5-1.99,3.43-4.32-.07-2.33-1.72-4.16-3.69-4.1-1.97.06-3.5,1.99-3.43,4.32Z"/>
              <path class="cls-21" d="m1941.72,732.13c.07,2.33,1.72,4.16,3.69,4.1,1.97-.06,3.5-1.99,3.43-4.32-.07-2.33-1.72-4.16-3.69-4.1-1.97.06-3.5,1.99-3.43,4.32Z"/>
              <path class="cls-21" d="m1954.15,749.9c-.26,0-.53-.09-.75-.26-2.74-2.19-4.05-4.16-4.13-6.2-.11-2.78,2.09-4.85,4.43-7.04.8-.75,1.63-1.53,2.38-2.36.45-.48,1.2-.53,1.69-.08.49.45.52,1.2.08,1.69-.8.88-1.67,1.7-2.52,2.5-2,1.89-3.74,3.52-3.67,5.2.05,1.27,1.14,2.75,3.23,4.43.52.41.6,1.16.19,1.68-.23.3-.58.45-.93.45Z"/>
              <path class="cls-21" d="m1961.71,718.2c-.14,2.67,3.68,2.55,8.37,2.79,4.69.25,8.39.72,8.62-1.9.28-3.16-12.36-3.15-14.21-3.19-.51-.01-1.03-.01-1.51.16-.88.33-1.22,1.26-1.27,2.13Z"/>
              <path class="cls-21" d="m1950.47,719.61c.2,2.72-2.77,2.88-6.41,3.49-1.59.27-3.31,1.06-4.97.84-2.3-.3-2.66-2.98-.82-4.32,2.69-1.96,6.81-1.76,9.96-2.15.4-.05.8-.09,1.18.05.7.27.99,1.2,1.06,2.08Z"/>
              <path class="cls-21" d="m1958.12,762.11c-1.61,0-3.4-.26-5.46-.79-.54-.14-.86-.68-.72-1.22.14-.53.67-.85,1.22-.72,7.57,1.95,10.68.2,17.44-6.83.39-.4,1.02-.41,1.41-.03.4.39.41,1.02.03,1.41-5.1,5.3-8.55,8.18-13.92,8.18Z"/>
              <path class="cls-3" d="m1986.02,735.56c3.12,3.12,3.12,8.19,0,11.31-3.12,3.12-8.19,3.12-11.31,0-3.12-3.12-3.12-8.19,0-11.31,3.12-3.12,8.19-3.12,11.31,0Z"/>
              <path class="cls-3" d="m1942.27,755.85c-.8.8-1.72,1.4-2.72,1.8-1.52-4.76-2.8-9.96-3.76-15.36,2.32-.28,4.72.48,6.48,2.28,3.12,3.12,3.12,8.16,0,11.28Z"/>
            </g>
            <path class="cls-21" d="m1922.45,684.71c17.95,16.37,41.01,20.63,68.67,14l-12-21-40.67.67-16,6.33Z"/>
            <path class="cls-1" d="m2027.62,775.8c3.03.59,5.31.93,7.49.97,2.15.07,4.12-.07,6.03-.37,1.91-.32,3.73-.78,5.4-1.54,1.65-.77,3.38-1.76,4.66-4.64,2.25,2.26,1.78,6.57-.37,9.24-2.11,2.76-5.26,4.33-8.41,4.83-3.17.51-6.47-.04-9.21-1.55-2.72-1.52-4.91-3.96-5.59-6.94Z"/>
          </g>
        </g>
      </g>
      <rect class="cls-7" x="58.53" y="1470.55" width="2426.67" height="6"/>
    </g>
  </g>
</svg>