<?xml version="1.0" encoding="UTF-8"?>
<svg id="Layer_2" data-name="Layer 2" xmlns="http://www.w3.org/2000/svg" viewBox="0 0 2144 1600.67">
  <defs>
    <style>
      .cls-1, .cls-2 {
        fill: #fff;
      }

      .cls-3 {
        opacity: .5;
      }

      .cls-4 {
        fill: #001f40;
      }

      .cls-5 {
        opacity: .84;
      }

      .cls-6, .cls-7 {
        fill: #003e80;
      }

      .cls-8, .cls-9 {
        fill: #ff5c33;
      }

      .cls-10 {
        fill: #e2edff;
      }

      .cls-11 {
        fill: #007bff;
      }

      .cls-12 {
        fill: #974245;
      }

      .cls-7 {
        opacity: .1;
      }

      .cls-13 {
        fill: #ffba9a;
      }

      .cls-14 {
        fill: #4a191b;
        opacity: .3;
      }

      .cls-15 {
        fill: #95beff;
      }

      .cls-16 {
        fill: #14cca1;
      }

      .cls-17 {
        fill: #ffb900;
      }

      .cls-18 {
        fill: #e8950c;
      }

      .cls-9 {
        opacity: .2;
      }

      .cls-2 {
        opacity: .6;
      }
    </style>
  </defs>
  <g id="OBJECTS">
    <g>
      <g>
        <g>
          <g class="cls-3">
            <path class="cls-10" d="m2043.43,1207.23c-45.59-134.31-167.81-244.46-309.02-257.87-133.29-12.65-261.99,56.62-395.87,57.86-216.51,2-396.21-169.76-608.31-213.26-246.5-50.56-518.54,102.6-603.17,339.57-54.65,153.03-26.66,328.5,60,465.14h1817.41c61.85-120.02,82.27-263.83,38.95-391.44Z"/>
          </g>
          <g>
            <path class="cls-1" d="m346.04,1228.7c175.67-27.36,331.66-152.76,398.94-316.89,14.15-34.51,24.09-70.19,30.73-106.51-1.33-.39-2.65-.77-3.98-1.15-4.46,24.41-10.34,48.59-18.07,72.37-27.41,84.29-78.14,159.98-143.65,219.46-65.06,59.07-144.82,102.3-230.55,122.19-88.84,20.61-182.67,14.8-269.27-13.13-.77-.25-1.52-.53-2.29-.78-.25,1.31-.51,2.62-.75,3.94,76.64,25.08,158.85,32.98,238.88,20.52Z"/>
            <path class="cls-1" d="m631.42,1347.3c131.13,17.53,265.84,26.91,395.41-6.28,58.77-15.05,115.56-38.97,165.33-73.94,49.97-35.1,91.33-80.98,124.14-132.31,26.23-41.05,46.69-84.72,63.14-129.94-1.45.15-2.89.31-4.34.44-11.23,30.58-24.34,60.49-39.94,89.47-30.24,56.13-69.38,107.88-118.61,148.72-48.54,40.27-105.89,68.62-166.07,86.82-127.15,38.45-261.81,32.74-392.06,16.51-142.5-17.76-285.12-47.83-429.44-41.4-43.13,1.92-86.76,7.06-129.4,16.39.06,1.39.09,2.79.16,4.18,34.77-7.71,70.2-12.61,105.48-15.18,143.06-10.4,285.05,17.64,426.21,36.51Z"/>
            <path class="cls-1" d="m1914.74,1441.5c-50.39-11.05-100.12-26.46-146.11-50.13-42.85-22.05-83.23-51.45-111.83-90.72-29.4-40.36-43.44-89.29-39.05-139.12,8.05-91.52,67.71-164.66,144.82-208.16-1.97-.37-3.95-.7-5.93-1.03-64.73,37.4-116.32,94.69-136.05,170.01-12.58,48.03-9.69,99.01,11.39,144.22,20.21,43.36,54.96,78.09,94.3,104.53,41.51,27.9,88.44,47.46,136.35,61.31,57.51,16.63,116.91,26.75,176.64,30.57,4.79.31,9.58.5,14.38.73.3-1.32.59-2.64.88-3.96-47-2.15-93.81-8.16-139.77-18.24Z"/>
            <path class="cls-1" d="m866.15,907.38c9.1-19.23,19.27-37.9,30.44-55.95-1.23-.56-2.46-1.12-3.69-1.68-8,12.97-15.5,26.25-22.44,39.83-17.29,33.82-31.24,69.38-41.41,105.98-11.11,39.99-20.51,83.94-10.23,125.1,7.94,31.78,28.75,61.45,60.38,72.88,35.78,12.93,74.66-.49,106.35-18.05,34.54-19.14,66.15-44.69,96.08-70.29,30.11-25.76,58.5-53.52,84.97-83.01,10.67-11.88,21-24.06,31.02-36.48-1.42-.42-2.83-.85-4.25-1.28-48.39,59.81-104.32,113.52-166.47,159.09-31.86,23.36-67.76,47-108.14,50.74-40.12,3.72-73.68-19.36-89.57-55.49-17.61-40.05-10.44-85.7-.34-126.7,8.88-36.03,21.43-71.17,37.3-104.71Z"/>
            <path class="cls-1" d="m1943.69,1336.97c41.47,2.21,83.08-8.09,121.08-26.17-.1-1.21-.19-2.42-.3-3.62-31.48,14.92-65.54,24.1-100.99,25.81-39.76,1.92-80.37-8.49-109.98-36.14-26.72-24.94-40.1-61.2-29.88-97.05,4.54-15.91,13.51-30.82,26.45-41.29,16.79-13.6,38.46-17.06,59.45-17.7,18.91-.58,37.92.78,56.74-1.63,13.73-1.76,27.15-5.52,39.86-10.96-.71-1.15-1.39-2.31-2.11-3.44-4.16,1.76-8.39,3.36-12.69,4.74-38.8,12.41-80.32.38-118.81,12.67-30.06,9.6-50.07,36.51-55.14,67.14-5.31,32.05,6.72,63.33,29.15,86.3,25.57,26.19,61.03,39.42,97.17,41.34Z"/>
            <path class="cls-1" d="m1561.93,1469.14c-17.98-42.83-35.96-85.65-53.95-128.48-12.59-29.96-25.82-62.64-52.96-82.47-28.66-20.94-67.65-20.94-99.67-8.13-34.01,13.61-61.03,40.03-84.1,67.74-45.94,55.18-78.9,120.76-97.19,190.12-7.84,29.74-12.97,60.15-15.3,90.74h4.11c6.92-89.6,37.84-177.36,90.22-250.8,21.42-30.03,46.38-59.87,77.49-80.27,31.96-20.96,74.71-31.06,110.46-13.27,32.66,16.26,48.15,51.89,61.55,83.72,16.74,39.75,33.4,79.53,50.1,119.3,19.78,47.1,39.56,94.21,59.34,141.31h4.3c-18.13-43.17-36.26-86.35-54.39-129.52Z"/>
          </g>
        </g>
        <g class="cls-3">
          <path class="cls-10" d="m1391.77,720.19c-25.95.78-51.96-.29-82.12-11.22-64.22-23.26-144.22,14.86-144.75,88.96-.41,57.51,52.47,95.57,101.46,113.11,92.41,33.08,283.82,15.74,274.81-121.56-2.88-43.93-26.24-64.38-68.26-69.23-29.66-3.42-55.36-.82-81.13-.05Z"/>
        </g>
      </g>
      <g>
        <path class="cls-17" d="m1737.51,341.43c-25.19-8.72-42.4-23.85-61.81-46.01l8.21-17.49c20.37,26.98,27.05,41.58,52.51,39.47l1.08,24.03Z"/>
        <path class="cls-11" d="m2026.67,728.93c-18.74-24.37-27.1-49.39-34.05-82.25l15.97-10.6c5.5,37.88,4.5,55.55,28.74,70.22l-10.66,22.62Z"/>
        <path class="cls-16" d="m1399.1,407.24c-26.52,6.59-48.57,2.81-75.61-6.09l-.05-20.55c29.98,12.69,42.27,22.07,64.4,5.53l11.26,21.12Z"/>
        <path class="cls-8" d="m717.33,323.65c-12.54,17.83-26.62,27.36-45.57,36.61l-8.14-11.7c22.12-8.65,32.84-9.81,38.94-30.99l14.76,6.08Z"/>
        <path class="cls-11" d="m281.12,842.45c-29.79,1.5-52.09-6.74-78.31-21.2l5.4-21.04c28.32,18.92,38.82,30.95,66.61,18.4l6.3,23.84Z"/>
        <path class="cls-16" d="m335.44,331.82c-22.73-16.52-34.63-36.77-46.01-64.6l15.47-14.49c10.49,32.84,11.63,49.23,38.94,55.25l-8.4,23.83Z"/>
        <path class="cls-11" d="m471.43,514.07c-25.75,17.98-50.05,23.21-81.16,25.16l-6.43-21.52c35.37.8,51.16,5.5,69.23-21.08l18.36,17.44Z"/>
        <path class="cls-17" d="m840.22,18.24c-25.83,15.19-49.48,18.25-79.49,17.61l-4.89-21.2c33.93,3.63,48.83,9.43,67.79-14.65l16.59,18.24Z"/>
        <path class="cls-16" d="m1206.27,70.62c-21.53-10.62-35.45-25.99-50.71-47.84l8.77-14.52c15.7,26.21,20.35,39.9,43.04,40.98l-1.11,21.37Z"/>
        <path class="cls-8" d="m1541.41,154.64c23.56-13.88,36.63-31.99,49.67-57.23l-14.41-14.63c-12.47,29.99-14.64,45.24-42.07,48.98l6.81,22.87Z"/>
        <g class="cls-5">
          <path class="cls-8" d="m765.78,900.16c-23.75-14.15-38.52-32.97-54.33-59.29l11.01-15.69c16.01,31.34,20.33,47.37,46.09,50.76l-2.78,24.23Z"/>
        </g>
        <path class="cls-8" d="m1551.39,687.29c-9.45,29.44-24.05,48.95-45.04,70.58l-14.96-10.99c25.33-22.46,38.74-29.43,38.6-59.93l21.39.34Z"/>
        <circle class="cls-8" cx="576" cy="200" r="10"/>
        <circle class="cls-17" cx="1370.67" cy="200" r="10"/>
        <circle class="cls-8" cx="1632" cy="504.67" r="10"/>
        <circle class="cls-16" cx="592" cy="606" r="10"/>
        <rect class="cls-17" x="121.95" y="504.19" width="28.28" height="28.28" transform="translate(-326.66 248.05) rotate(-45)"/>
        <rect class="cls-16" x="1858.71" y="471.43" width="28.28" height="28.28" transform="translate(205.19 1466.53) rotate(-45)"/>
      </g>
      <g>
        <path class="cls-17" d="m1040.15,1133.68h118.16c13.89,0,25.16,11.27,25.16,25.16v39.35h-168.48v-39.35c0-13.89,11.27-25.16,25.16-25.16Z" transform="translate(-1.42 1.34) rotate(-.07)"/>
        <rect class="cls-17" x="1044.75" y="963.16" width="109" height="193"/>
        <polygon class="cls-18" points="1044.75 1046.57 1044.75 963.16 1153.75 963.16 1153.64 1003.67 1044.75 1046.57"/>
        <path class="cls-17" d="m1286.68,814.31l-6.95-22.97c127.63-38.63,181.75-118.47,165.44-244.08-.18-.18-1.53-.97-3.19-.52l-17.57,4.75c-7.03,1.9-11.76,7.17-11.76,13.1v27.22c0,16.52-13.94,29.72-31.73,30.07-18.39.35-49.86.95-54.05.95v-24c2.87,0,22.9-.35,53.59-.94,4.44-.08,8.2-2.87,8.2-6.07v-27.22c0-16.92,11.85-31.49,29.49-36.27l17.57-4.75c7.73-2.09,15.92-.78,22.49,3.6,5.96,3.98,9.88,10.17,10.77,17,8.57,66.03-1.04,121.75-28.57,165.63-29.8,47.5-81.52,82.66-153.71,104.51Z"/>
        <path class="cls-17" d="m911.6,814.31c-72.19-21.85-123.91-57.01-153.71-104.51-27.53-43.88-37.15-99.6-28.57-165.63.89-6.82,4.81-13.02,10.77-17,6.56-4.38,14.76-5.68,22.49-3.6l17.56,4.75c17.64,4.77,29.49,19.35,29.49,36.27v27.22c0,3.21,3.75,5.98,8.2,6.07,30.68.59,50.71.94,53.59.94v24c-4.19,0-35.66-.59-54.05-.95-17.79-.34-31.73-13.55-31.73-30.07v-27.22c0-5.93-4.73-11.2-11.76-13.1l-17.56-4.75c-1.67-.46-3.02.33-3.25.71-16.25,125.42,37.87,205.26,165.5,243.89l-6.95,22.97Z"/>
        <path class="cls-17" d="m1339.18,549.69l-26.08,325.68c-3.12,39.04-22.16,73.28-50.44,96.52-24.12,19.84-55,31.68-88.48,31.68h-149.88c-72.64,0-133.08-55.8-138.88-128.2l-13.52-169-12.56-156.68c-1.96-24.52,17.4-45.52,42.04-45.52h395.76c24.6,0,44,21,42.04,45.52Z"/>
        <path class="cls-18" d="m1262.66,971.89c-24.12,19.84-55,31.68-88.48,31.68h-149.88c-72.64,0-133.08-55.8-138.88-128.2l-13.52-169c94.92,119.96,246.28,222.88,390.76,265.52Z"/>
        <rect class="cls-4" x="1024.3" y="1001.57" width="156.17" height="4"/>
        <rect class="cls-4" x="1040.11" y="1131.75" width="29.03" height="4"/>
        <rect class="cls-4" x="1130.11" y="1131.75" width="29.03" height="4"/>
        <path class="cls-17" d="m1019.77,1184.2h158.84c24.32,0,44.06,19.74,44.06,44.06v65.23h-246.95v-65.23c0-24.32,19.74-44.06,44.06-44.06Z" transform="translate(-1.51 1.34) rotate(-.07)"/>
        <rect class="cls-18" x="1015.14" y="1182.67" width="168.25" height="4"/>
        <ellipse class="cls-2" cx="1227.64" cy="644.67" rx="22" ry="43"/>
      </g>
      <g>
        <rect class="cls-1" x="493.93" y="1496.34" width="1211.42" height="102.98"/>
        <rect class="cls-1" x="694.11" y="1393.37" width="811.05" height="102.98"/>
        <rect class="cls-1" x="834.39" y="1290.39" width="530.5" height="102.98"/>
        <rect class="cls-8" x="801.24" y="1496.35" width="596.8" height="102.96"/>
        <rect class="cls-8" x="887.16" y="1393.35" width="424.96" height="103"/>
        <rect class="cls-8" x="975.28" y="1290.39" width="248.72" height="102.96"/>
        <rect class="cls-7" x="834.4" y="1369.31" width="140.88" height="24"/>
        <rect class="cls-7" x="1224" y="1369.31" width="140.88" height="24"/>
        <rect class="cls-14" x="975.28" y="1369.31" width="248.72" height="24"/>
        <rect class="cls-7" x="694.12" y="1472.19" width="193.04" height="24"/>
        <rect class="cls-7" x="1312.12" y="1472.19" width="193.04" height="24"/>
        <rect class="cls-14" x="887.16" y="1472.19" width="424.96" height="24"/>
        <rect class="cls-7" x="493.92" y="1575.31" width="307.32" height="24"/>
        <rect class="cls-7" x="1398.04" y="1575.31" width="307.32" height="24"/>
        <rect class="cls-14" x="801.24" y="1575.31" width="596.8" height="24"/>
        <polygon class="cls-15" points="495.93 1599.32 491.93 1599.32 491.93 1494.34 692.12 1494.19 692.11 1391.36 832.4 1391.31 832.39 1288.39 974.3 1288.39 974.3 1292.39 836.39 1292.39 836.4 1395.31 696.11 1395.36 696.12 1498.19 495.93 1498.34 495.93 1599.32"/>
        <polygon class="cls-15" points="1707.35 1599.32 1703.35 1599.32 1703.35 1498.34 1503.16 1498.19 1503.17 1395.36 1362.88 1395.31 1362.89 1292.39 1222.69 1292.39 1222.69 1288.39 1366.89 1288.39 1366.88 1391.31 1507.17 1391.36 1507.16 1494.19 1707.35 1494.34 1707.35 1599.32"/>
      </g>
      <g>
        <g>
          <g>
            <polygon class="cls-4" points="1074.27 593.75 1059.35 643.16 1117.57 661.51 1098.13 628.99 1103.84 600.43 1074.27 593.75"/>
            <rect class="cls-1" x="1085.69" y="629.88" width="13.11" height="4" transform="translate(-166.74 546.92) rotate(-26.19)"/>
          </g>
          <path class="cls-11" d="m1063.97,439.33l40.95,3.93c8.42.81,16.66,3.57,23.35,8.75,13.01,10.08,18.14,25.77,15.33,41.78-.73,4.15-1.61,7.98-2.24,11.25l-33.51,118.86-50.82-27.12,22.67-88.52-51.6-1.6-28.15-59.02,10.16-47.05,53.86,38.73Z"/>
        </g>
        <g>
          <g>
            <polygon class="cls-4" points="1056.9 646.96 1044.23 701.12 1108.11 716.88 1084.98 683.23 1089.16 652.13 1056.9 646.96"/>
            <rect class="cls-1" x="1071.78" y="684.74" width="14.13" height="4" transform="translate(-198.7 628.51) rotate(-29.87)"/>
          </g>
          <path class="cls-11" d="m1002.29,507.47l43.86,160.02,49.26-5.58-28.81-169.58c-2.79-14.78-3.41-23.86-26.04-35.13l-24.23-13.44-6.21-43.14-36.75,23.93-5.94,56.2c-1.44,13.61,8.7,25.63,22.11,26.2l12.76.54"/>
        </g>
        <path class="cls-1" d="m1066.13,438.5l-73.07,8.3c-8.16.93-15.53-4.91-16.49-13.07l-12.75-108.2,60.92-14.86,64.63,9.66-11.86,106.76c-.67,5.99-5.39,10.73-11.38,11.41Z"/>
        <g>
          <path class="cls-13" d="m914.15,196.22s5.68-27.9,1.28-26.88c-4.4,1.02-8.93,11.73-8.93,11.73,0,0-9.66-23.21-13.36-22.97s-2.59,6.12-2.59,6.12c0,0-6.91-3.28-8.71,3.53,0,0-6.91-3.28-6.85,9.37.02,4.6,3.72,20.58,8.41,39.06l33.09-12.58-2.33-7.37Z"/>
          <path class="cls-6" d="m939.64,267.67l-23.16-64.08-33.09,12.58c5.8,22.83,13.12,49.47,16.92,63.16,1.68,6.03,4.71,11.57,8.89,16.23l66.44,79.11,28.67-40.67-64.67-66.33Z"/>
          <g>
            <path class="cls-12" d="m902.08,193.81c-3.27-3.88-3-7.61.83-11.08l.67.74c-3.39,3.09-3.63,6.26-.73,9.7l-.77.64Z"/>
            <rect class="cls-12" x="891.49" y="163.68" width="1" height="14.45" transform="translate(-6.76 301.72) rotate(-19.13)"/>
            <polygon class="cls-12" points="886.8 179.91 882.62 167.45 883.56 167.14 887.75 179.6 886.8 179.91"/>
            <polygon class="cls-12" points="882.32 183.42 877.09 169.07 878.03 168.72 883.26 183.08 882.32 183.42"/>
          </g>
        </g>
        <g>
          <path class="cls-13" d="m1171.09,156.9c-.74-12.63-9.28-10.07-9.28-10.07-1.67-5.5-7.06-1.82-7.06-1.82,0,0,.28-3.68-3.44-3.68s-11.42,21.51-11.42,21.51c0,0-5.2-10.4-9.66-11.14-4.46-.74,2.97,26.74,2.97,26.74l-2.14,8.63,33.63,11.84c3.75-19.78,6.68-37.22,6.39-42.02Z"/>
          <path class="cls-6" d="m1131.06,187.08l-19.42,65.59-56,74.67,32,33.33,56.78-83.4c3.87-4.92,6.55-10.63,7.84-16.76,2.83-13.41,8.16-39.03,12.43-61.59l-33.63-11.84Z"/>
          <g>
            <path class="cls-12" d="m1145.41,175.39l-.83-.56c2.52-3.73,1.94-6.86-1.77-9.56l.59-.81c4.17,3.05,4.84,6.72,2,10.93Z"/>
            <rect class="cls-12" x="1145.79" y="151.04" width="14.45" height="1" transform="translate(744.88 1240.5) rotate(-76.94)"/>
            <rect class="cls-12" x="1153.49" y="152.92" width="13.14" height="1" transform="translate(760.92 1253.4) rotate(-77.59)"/>
            <polygon class="cls-12" points="1163.96 162.95 1162.99 162.71 1166.66 147.88 1167.62 148.12 1163.96 162.95"/>
          </g>
        </g>
        <g>
          <path class="cls-13" d="m1023.86,328.62h0c-7,0-12.67-5.67-12.67-12.67v-22.49h25.34v22.49c0,7-5.67,12.67-12.67,12.67Z"/>
          <path class="cls-4" d="m1036.25,296.7c-3.98,14.14-20.18,14.73-25.19,0h25.19Z"/>
          <ellipse class="cls-13" cx="1023.86" cy="280.5" rx="18.7" ry="21.8"/>
          <path class="cls-4" d="m1006.75,280.87c1.1-15.03,11.05-18.56,11.05-18.56l12.93-.22c5.3,3.98,9.82,11.47,10.05,19.34l4.42-.22c2.75-14.69.33-29.06-8.18-32.37l4.2-2.1c-35.07-7.76-43.75,6.3-39.55,30.94l5.08,3.2Z"/>
          <g>
            <path class="cls-13" d="m1009.08,279.46c1.4,2.94.45,6.31-2.12,7.54-2.57,1.22-5.79-.17-7.19-3.1-1.4-2.94-.45-6.31,2.12-7.54,2.57-1.22,5.79.17,7.19,3.1Z"/>
            <path class="cls-4" d="m1005.34,283.15c-.6-1.7-1.72-2.81-3.41-3.41l.3-.84c1.97.7,3.26,1.99,3.95,3.95l-.84.3Z"/>
          </g>
          <g>
            <path class="cls-13" d="m1039.25,279.46c-1.4,2.94-.45,6.31,2.12,7.54,2.57,1.22,5.79-.17,7.19-3.1s.45-6.31-2.12-7.54c-2.57-1.22-5.79.17-7.19,3.1Z"/>
            <path class="cls-4" d="m1043,283.15l-.84-.3c.69-1.96,1.99-3.26,3.95-3.95l.3.84c-1.7.6-2.81,1.72-3.41,3.41Z"/>
          </g>
        </g>
        <path class="cls-6" d="m1010.9,314.01c13.02,43.81,8.62,110.73-6.22,160.84l-52.74,8.17,11.89-157.49,47.08-11.52Z"/>
        <path class="cls-6" d="m1036.4,312.51c4,50.73,13.43,124.07,32.08,159.22l31.91-16.31-11.02-135.09-52.97-7.82Z"/>
        <path class="cls-4" d="m1094.42,662.06c-.28-1.7-27.81-170.33-32.23-184.6-4.31-13.88-32.14-25.26-32.42-25.37l.75-1.86c1.18.48,28.99,11.85,33.58,26.63,4.47,14.4,31.17,177.91,32.3,184.87l-1.98.32Z"/>
        <rect class="cls-4" x="1007.64" y="494.27" width="2" height="72.8" transform="translate(-106.98 297.51) rotate(-15.95)"/>
        <polygon class="cls-4" points="1094.3 510.66 1079.6 509.26 1079.79 507.27 1094.48 508.67 1094.3 510.66"/>
      </g>
      <g>
        <g>
          <g>
            <g>
              <g>
                <g>
                  <polygon class="cls-4" points="417.36 1552.8 409.92 1600.04 473.53 1600.04 448.61 1575.12 450.47 1551.68 417.36 1552.8"/>
                  <rect class="cls-1" x="434.94" y="1576.84" width="14.68" height="4" transform="translate(-739.6 442.4) rotate(-30.47)"/>
                </g>
                <path class="cls-16" d="m548.72,1209.03c-.94,5.62-1.83,11.21-2.86,16.74-1.74,10.45-3.57,20.8-5.45,31.03-6.7,36.78-14.02,72.36-21.96,106.83v.09c-15.85,69.55-33.97,134.64-53.97,196.11h-56.56c22.77-108.66,44.82-216.15,51.92-299.37,1.07-12.23,1.79-23.97,2.14-35.09l86.74-16.34Z"/>
              </g>
              <g>
                <g>
                  <polygon class="cls-4" points="546.44 1550.57 543.68 1599.14 611.53 1600.04 584.59 1575.12 586.6 1551.68 546.44 1550.57"/>
                  <rect class="cls-1" x="569.97" y="1576.84" width="15.56" height="4" transform="translate(-684.63 468.47) rotate(-28.57)"/>
                </g>
                <path class="cls-16" d="m593.99,1558.57h-59.11c-4.15-67.19-9.2-132.85-16.43-194.86v-.09c-4.24-36.43-9.2-71.65-15.18-105.13-1.92-10.8-3.97-21.43-6.12-31.87l48.7-.85,24.24-.4c1.61,9.91,3.12,19.87,4.46,29.87,13.75,97.85,17.63,200.08,19.42,303.34Z"/>
              </g>
            </g>
            <path class="cls-14" d="m574.57,1255.23l-34.15,1.56-37.14,1.7-43.44,1.96c1.07-12.23,1.79-23.97,2.14-35.09l86.74-16.34c-.94,5.62-1.83,11.21-2.86,16.74l24.24-.4c1.61,9.91,3.12,19.87,4.46,29.87Z"/>
            <polygon class="cls-4" points="514.69 1389.31 512.73 1388.92 532.82 1289.22 534.78 1289.61 514.69 1389.31"/>
          </g>
          <g>
            <path class="cls-11" d="m533.05,1090.76c-29.94,3.24-54.41.74-78.22-13.61l-23.17,39.33,26.98,24.13-5.43,85.11c-.32,5.01,2.39,9.72,6.88,11.97,1.73.87,3.65,1.32,5.59,1.32h102.18c5.56,0,10.54-3.47,12.46-8.69.47-1.27.74-2.6.8-3.95l4.37-90.22,45.75-10.81-10.55-36.04c-34.86,4.07-66.31,6.26-87.65,1.47Z"/>
            <g>
              <path class="cls-13" d="m454.84,1077.16l-23.17,39.33-32.1-28.7c-.71-.62-1.38-1.29-2.05-1.96-6.21-6.29-10.58-14.2-12.5-22.86-.27-1.12-.54-2.32-.76-3.53-7.05-31.29-20.4-92.23-19.73-97.59.94-7.23,8.35-4.06,8.35-4.06.58-6.92,6.34-3.17,6.34-3.17,0-3.93,1.29-4.87,5.22-4.69,3.88.22,9.11,23.84,9.11,23.84,0,0,5.76-12.28,10.04-11.34,4.29.89-3.71,24.55-3.71,24.55l27.9,68.44c9.11,9.2,18.04,16.29,27.05,21.74Z"/>
              <path class="cls-9" d="m401.9,1074.93c0,4.24-1.65,8.08-4.37,10.89-6.21-6.29-10.58-14.2-12.5-22.86-.27-1.12-.54-2.32-.76-3.53.67-.09,1.34-.13,2.01-.13,8.66,0,15.62,7.01,15.62,15.62Z"/>
              <g>
                <path class="cls-12" d="m388.53,987.5c-3.49-3.68-3.43-7.42.19-11.11l.71.7c-3.22,3.27-3.28,6.45-.18,9.72l-.73.69Z"/>
                <polygon class="cls-12" points="380.78 964.56 378.73 954.72 379.71 954.52 381.76 964.36 380.78 964.56"/>
                <polygon class="cls-12" points="374.84 966.1 372.4 957.94 373.36 957.65 375.8 965.81 374.84 966.1"/>
                <rect class="cls-12" x="369.15" y="960.42" width="1" height="7.89" transform="translate(-237.18 128.66) rotate(-15.01)"/>
              </g>
            </g>
            <g>
              <path class="cls-13" d="m678.4,1100.06c-.45.76-.94,1.47-1.38,2.23l-2.99,4.46c-4.06,6.12-10.22,10.54-17.28,12.5-.36.13-.76.22-1.16.31l-24.33,5.76-10.54-36.03c9.73-1.16,19.73-2.41,29.87-3.75l30.13-56.92s0-24.2,3.35-24.91c3.35-.76,5.98,14.11,5.98,14.11,0,0,12.99-19.69,17.1-19.69s2.99,5.58,2.99,5.58c0,0,3.79-4.69,6.07-2.46,1.16,1.16.98,5.4.98,5.4,0,0,1.5-1.4,4.45-.16,5.72,2.4-12.49,44.23-43.24,93.55Z"/>
              <path class="cls-9" d="m678.4,1100.06c-.45.76-.94,1.47-1.38,2.23l-2.99,4.46c-4.06,6.12-10.22,10.54-17.28,12.5-.63-1.65-.94-3.39-.94-5.22,0-8.66,7.01-15.62,15.62-15.62,2.5,0,4.87.58,6.96,1.65Z"/>
              <g>
                <path class="cls-12" d="m692.65,1031.69l-.5-.87c3.89-2.26,4.74-5.33,2.58-9.38l.88-.47c2.43,4.55,1.43,8.16-2.96,10.71Z"/>
                <polygon class="cls-12" points="706.21 1011.7 705.33 1011.22 710.08 1002.36 710.96 1002.84 706.21 1011.7"/>
                <polygon class="cls-12" points="712.96 1014.37 712.07 1013.91 716.54 1005.33 717.43 1005.79 712.96 1014.37"/>
                <polygon class="cls-12" points="717.34 1015.34 716.49 1014.81 720.61 1008.08 721.46 1008.6 717.34 1015.34"/>
              </g>
            </g>
            <rect class="cls-4" x="451.31" y="1107.03" width="2" height="53.95" transform="translate(-707.2 751.79) rotate(-50.01)"/>
            <polygon class="cls-4" points="584.97 1171.72 582.98 1171.61 585.98 1113.95 587.97 1114.05 584.97 1171.72"/>
            <path class="cls-4" d="m533.1,1128.13c-6.52,0-13.17-2.93-18.18-8.1l1.44-1.39c5.19,5.36,12.24,8.1,18.91,7.37,5.64-.64,10.44-3.79,13.52-8.86l1.71,1.04c-3.4,5.62-8.73,9.1-15,9.81-.79.09-1.59.14-2.4.14Z"/>
          </g>
          <g>
            <path class="cls-13" d="m533.53,1111.97h0c-7.97.89-15.16-4.85-16.06-12.82l-3.84-34.3,28.88-3.24,3.84,34.3c.89,7.97-4.85,15.16-12.82,16.06Z"/>
            <path class="cls-4" d="m523.28,1077.74c6.65,7.63,14.18,13.03,22.94,15.33l-2.08-18.51-20.87,3.19Z"/>
            <path class="cls-13" d="m557.93,1040.63s5.55,36.42-7.16,41.08c-11.88,4.35-27.49-3.97-27.49-3.97l-10.48-30.58,13.6-12.4,31.53,5.87Z"/>
            <path class="cls-4" d="m518.28,1058.41c.73-6.97,3.47-12.99,10.56-16.95,20.69,8.38,33.64,1.97,42.93-11.43,0,0-11.84,2.54-18.97-2.06-7.13-4.6-25.5-17.98-37.11,1.4-16.24,7.53-12.79,20.62-6.23,29.03h8.82Z"/>
            <g>
              <path class="cls-13" d="m521.62,1057.43c2.4,4.14,1.43,9.17-2.16,11.25-3.59,2.08-8.44.41-10.83-3.73-2.4-4.14-1.43-9.17,2.16-11.25,3.59-2.08,8.44-.41,10.83,3.73Z"/>
              <path class="cls-4" d="m516.35,1064.88c-.24-3.21-1.6-5.41-4.16-6.7l.91-1.78c3.19,1.62,4.95,4.42,5.25,8.34l-2,.15Z"/>
            </g>
          </g>
        </g>
        <g>
          <g>
            <path class="cls-1" d="m502.31,754c38.29,0,69.33,31.04,69.33,69.33,0,26.84-15.28,50.07-37.58,61.59l6.92,35.74-24.7-29.41c-4.51.92-9.18,1.41-13.96,1.41-38.29,0-69.33-31.04-69.33-69.33s31.04-69.33,69.33-69.33Z"/>
            <path class="cls-15" d="m544.4,927.86l-28.9-34.41c-4.33.81-8.76,1.22-13.19,1.22-39.33,0-71.33-32-71.33-71.33s32-71.33,71.33-71.33,71.33,32,71.33,71.33c0,26.27-14.27,50.14-37.34,62.66l8.1,41.86Zm-27.37-38.8l20.51,24.41-5.74-29.64,1.33-.69c22.52-11.63,36.5-34.55,36.5-59.81,0-37.13-30.21-67.33-67.33-67.33s-67.33,30.21-67.33,67.33,30.21,67.33,67.33,67.33c4.57,0,9.13-.46,13.56-1.37l1.17-.24Z"/>
          </g>
          <g>
            <circle class="cls-15" cx="470" cy="824.97" r="9.69"/>
            <circle class="cls-15" cx="502.31" cy="824.97" r="9.69"/>
            <circle class="cls-15" cx="534.62" cy="824.97" r="9.69"/>
          </g>
        </g>
      </g>
      <g>
        <g>
          <g>
            <path class="cls-8" d="m1569.5,1026.5l-41.7,84.02-29.45,20.88,16.86,21.81c7.71-3.35,15.09-6.62,20.75-9.14,7.01-3.12,13.29-7.67,18.46-13.35l30.95-34.04-15.87-70.18Z"/>
            <path class="cls-13" d="m1487.21,1139.3s-27.54-.71-26.66,7.47c.83,7.75,18.54,12.45,18.54,12.45,0,0-9.78,10.61-6.37,10.79,2.81.15,23.64-8.6,42.48-16.8l-16.86-21.81-11.14,7.9Z"/>
          </g>
          <g>
            <polygon class="cls-4" points="1654.65 1440.04 1653.98 1495.29 1588.62 1495.29 1618.94 1468.34 1622.31 1437.34 1654.65 1440.04"/>
            <rect class="cls-1" x="1622.01" y="1466.17" width="4" height="14.04" transform="translate(-563 1630.22) rotate(-46.32)"/>
          </g>
          <g>
            <polygon class="cls-4" points="1679.86 1221.88 1731.08 1201.15 1756.34 1261.42 1719.76 1243.88 1689.88 1252.75 1679.86 1221.88"/>
            <rect class="cls-1" x="1715.25" y="1235.32" width="14.04" height="4" transform="translate(-49.04 2403.36) rotate(-69.05)"/>
          </g>
          <polygon class="cls-11" points="1554.74 1155.17 1606.01 1446.99 1662.67 1445 1627.88 1118.98 1554.74 1155.17"/>
          <path class="cls-11" d="m1589.79,1140.41l5.06,152.67c.29,8.9,5.52,16.89,13.56,20.73h0c7.06,3.37,15.32,3.06,22.11-.83l68.12-39-3.14-60.51-38.74,14.39-.18-94.09-66.79,6.64Z"/>
          <g>
            <path class="cls-8" d="m1729,1044.1l-54.6-31.98c-5.76-3.37-12.15-5.52-18.78-6.3l-35.2-4.15-29.24,9.15c-17.16,5.37-29.21,20.8-30.26,38.75l-6.19,105.6,101.84-21.4,8.12-73.06,58.75,27.57c11.22,5.59,24.85,1.76,31.5-8.85,13.45-21.46,35.32-57.28,49.34-84.92l-33.42-11.86-41.88,61.46Z"/>
            <path class="cls-13" d="m1810.63,954.99s1.66-4.43-.55-5.81c-2.21-1.38-4.7,1.11-4.7,1.11,0,0,2.49-6.09-1.11-7.2-3.6-1.11-17.43,19.1-17.43,19.1,0,0-1.66-12.73-5.26-12.45-3.6.28-5.81,25.74-5.81,25.74l-4.89,7.17,33.42,11.86c8.2-16.19,13.72-29.58,13.26-35.63-.51-6.67-6.92-3.87-6.92-3.87Z"/>
            <g>
              <path class="cls-12" d="m1788.4,975.14l-.61-.8c3.57-2.74,4.02-5.89,1.37-9.63l.81-.58c2.99,4.21,2.46,7.91-1.57,11Z"/>
              <polygon class="cls-12" points="1801.07 957.05 1800.25 956.47 1806.03 948.24 1806.85 948.82 1801.07 957.05"/>
              <rect class="cls-12" x="1804.02" y="956.72" width="8.52" height="1" transform="translate(-86.26 1729.79) rotate(-50.08)"/>
              <rect class="cls-12" x="1807.43" y="960.77" width="7.89" height="1" transform="translate(-65.82 1786.66) rotate(-51.69)"/>
            </g>
          </g>
          <g>
            <path class="cls-18" d="m1647.7,960.43c-.87,12.96-12,25.27-26.19,24.31-14.18-.96-30-15.9-29.12-28.87.87-12.96,15.52-19.68,29.73-19.22,19.93.65,26.46,10.81,25.58,23.78Z"/>
            <path class="cls-13" d="m1619.13,1019.67h0c-7.41-.5-13.01-6.91-12.52-14.32l2.05-30.49,26.84,1.81-2.05,30.49c-.5,7.41-6.91,13.01-14.32,12.52Z"/>
            <path class="cls-4" d="m1627.13,992.96c-6.07,6.41-12.66,11.27-20.51,12.39l1.1-14.53,19.41,2.14Z"/>
            <path class="cls-13" d="m1598.13,957.09s-5.24,34.6,6.57,38.31,26.47-3.77,26.47-3.77l2.87-26.16-3.29-17-32.62,8.62Z"/>
            <path class="cls-18" d="m1633.61,975.99c-3.31-3.71-6.6-9.86-7.37-16.17-8.49,3.69-18.82,4.09-30.63,1.82l3.51-10.86,25.85-4.92,13.34,3.81-4.68,26.31Z"/>
            <g>
              <path class="cls-13" d="m1641.42,979.93c-2.44,3.09-6.58,3.89-9.25,1.79s-2.86-6.32-.42-9.41c2.44-3.09,6.58-3.89,9.25-1.79s2.86,6.32.42,9.41Z"/>
              <path class="cls-4" d="m1634.95,979.27l-1.99-.14c.36-5.14,3.57-6.32,6.19-6.4l.06,2c-2.73.08-4.04,1.48-4.26,4.54Z"/>
            </g>
            <circle class="cls-18" cx="1645.81" cy="937.82" r="16.71" transform="translate(-73.18 1733.58) rotate(-54.52)"/>
          </g>
          <polygon class="cls-4" points="1555.83 1154.73 1553.84 1154.6 1561.34 1040.1 1563.33 1040.23 1555.83 1154.73"/>
          <polygon class="cls-4" points="1691.38 1074.06 1647.88 1052.06 1648.79 1050.28 1692.29 1072.28 1691.38 1074.06"/>
          <path class="cls-4" d="m1616.78,1033.86c-.8,0-1.59-.07-2.37-.2-5.62-.98-9.89-5.38-11.7-12.06l1.93-.52c1.6,5.9,5.29,9.77,10.12,10.62,5.76,1.01,12.2-2.41,16.76-8.93l1.64,1.15c-4.41,6.3-10.51,9.95-16.37,9.95Z"/>
          <path class="cls-4" d="m1617.98,1316.89c-3.11,0-5.74-.52-7.91-1.25-9.31-3.14-13.69-11-14.7-14.71-3.99-14.62-5.95-130.64-6.04-135.58l2-.03c.02,1.2,2.04,120.71,5.96,135.09,1.07,3.9,5.52,10.67,13.41,13.34,9.85,3.33,22.41-.55,36.35-11.2l1.22,1.59c-12.88,9.85-22.92,12.76-30.3,12.76Z"/>
          <rect class="cls-4" x="1624.11" y="1225.06" width="73.62" height="2" transform="translate(-319.78 644.07) rotate(-20.06)"/>
        </g>
        <g>
          <g>
            <path class="cls-1" d="m1685,692c-38.29,0-69.33,31.04-69.33,69.33,0,26.84,15.28,50.07,37.58,61.59l-6.92,35.74,24.7-29.41c4.51.92,9.18,1.41,13.96,1.41,38.29,0,69.33-31.04,69.33-69.33s-31.04-69.33-69.33-69.33Z"/>
            <path class="cls-15" d="m1642.9,865.86l8.1-41.86c-23.07-12.53-37.34-36.4-37.34-62.66,0-39.33,32-71.33,71.34-71.33s71.33,32,71.33,71.33-32,71.33-71.33,71.33c-4.43,0-8.86-.41-13.19-1.22l-28.91,34.41Zm42.1-171.86c-37.13,0-67.34,30.21-67.34,67.33,0,25.26,13.99,48.18,36.5,59.81l1.33.69-5.73,29.64,20.51-24.41,1.17.24c4.43.91,9,1.37,13.56,1.37,37.13,0,67.33-30.2,67.33-67.33s-30.2-67.33-67.33-67.33Z"/>
          </g>
          <g>
            <circle class="cls-15" cx="1652.69" cy="761.03" r="9.69"/>
            <circle class="cls-15" cx="1685" cy="761.03" r="9.69"/>
            <circle class="cls-15" cx="1717.31" cy="761.03" r="9.69"/>
          </g>
        </g>
      </g>
      <rect class="cls-4" y="1596.67" width="2144" height="4"/>
    </g>
  </g>
</svg>