<?xml version="1.0" encoding="UTF-8"?>
<svg id="Layer_2" data-name="Layer 2" xmlns="http://www.w3.org/2000/svg" viewBox="0 0 150.34 51.2">
  <g id="Layer_14" data-name="Layer 14">
    <g>
      <g>
        <path d="m9.99,9.07h19.96v5.05h-13.95v8.29h11.83v5.05h-11.83v9.6h14.45v5.05H9.99V9.07Z"/>
        <path d="m40.45,51.2H0V0h40.45v51.2Zm-39.45-1h38.45V1H1v49.2Z"/>
        <path d="m38.22,48.51H2.22V2.69h36v45.81Zm-35-1h34V3.69H3.22v43.81Z"/>
      </g>
      <path d="m57.05,30.14c.5-.99,1.17-1.76,2.03-2.29.86-.53,1.81-.8,2.87-.8.9,0,1.69.18,2.37.55s1.2.85,1.57,1.44v-1.81h3.92v12.8h-3.92v-1.81c-.38.6-.91,1.08-1.59,1.44s-1.47.55-2.37.55c-1.04,0-1.99-.27-2.84-.81-.86-.54-1.53-1.31-2.03-2.32-.5-1-.75-2.16-.75-3.47s.25-2.47.75-3.46Zm8.03,1.17c-.54-.57-1.2-.85-1.98-.85s-1.44.28-1.98.84c-.54.56-.81,1.33-.81,2.3s.27,1.75.81,2.33c.54.57,1.2.86,1.98.86s1.44-.28,1.98-.85c.54-.57.81-1.34.81-2.32s-.27-1.75-.81-2.32Z"/>
      <path d="m51.9,40.02l-2.45-3.55-2.06,3.55h-4.24l4.22-6.54-4.33-6.26h4.4l2.45,3.53,2.06-3.53h4.24l-4.29,6.44,4.4,6.35h-4.4Z"/>
      <path d="m92.33,28.53c.94.96,1.41,2.3,1.41,4.01v7.48h-3.9v-6.95c0-.83-.22-1.46-.65-1.92-.44-.45-1.04-.68-1.8-.68s-1.36.23-1.8.68c-.44.45-.65,1.09-.65,1.92v6.95h-3.9v-6.95c0-.83-.22-1.46-.65-1.92-.44-.45-1.04-.68-1.8-.68s-1.36.23-1.8.68c-.44.45-.65,1.09-.65,1.92v6.95h-3.92v-12.8h3.92v1.61c.4-.53.92-.96,1.56-1.27.64-.31,1.37-.47,2.18-.47.96,0,1.82.21,2.58.62.76.41,1.35,1,1.78,1.77.44-.7,1.05-1.28,1.81-1.72.76-.44,1.6-.67,2.5-.67,1.59,0,2.86.48,3.8,1.44Z"/>
      <path d="m100.42,27.06v3.26h5.25v3.03h-5.25v3.53h5.94v3.14h-9.86v-16.1h9.86v3.14h-5.94Z"/>
      <path d="m108.87,30.14c.5-.99,1.17-1.76,2.03-2.29.86-.53,1.81-.8,2.87-.8.9,0,1.69.18,2.37.55.68.37,1.2.85,1.57,1.44v-1.81h3.92v12.8h-3.92v-1.81c-.38.6-.91,1.08-1.59,1.44-.68.37-1.47.55-2.37.55-1.04,0-1.99-.27-2.84-.81-.86-.54-1.53-1.31-2.03-2.32-.5-1-.75-2.16-.75-3.47s.25-2.47.75-3.46Zm8.03,1.17c-.54-.57-1.2-.85-1.98-.85s-1.44.28-1.98.84c-.54.56-.81,1.33-.81,2.3s.27,1.75.81,2.33c.54.57,1.2.86,1.98.86s1.44-.28,1.98-.85c.54-.57.81-1.34.81-2.32s-.27-1.75-.81-2.32Z"/>
      <path d="m126.7,39.63c-.87-.38-1.56-.91-2.06-1.57s-.79-1.41-.85-2.24h3.88c.04.44.25.8.62,1.08.37.28.82.41,1.35.41.49,0,.87-.1,1.14-.29.27-.19.4-.44.4-.75,0-.37-.19-.64-.57-.81-.38-.18-1-.37-1.86-.58-.92-.21-1.68-.44-2.29-.68s-1.14-.61-1.58-1.12c-.44-.51-.67-1.2-.67-2.08,0-.73.2-1.4.61-2.01.4-.6,1-1.08,1.79-1.43.79-.35,1.72-.53,2.81-.53,1.61,0,2.87.4,3.8,1.19.92.8,1.46,1.85,1.59,3.16h-3.62c-.06-.44-.26-.79-.59-1.06-.33-.26-.76-.39-1.3-.39-.46,0-.81.09-1.05.26-.24.18-.37.42-.37.72,0,.37.2.64.59.83.39.18,1,.37,1.82.55.95.24,1.72.49,2.32.72s1.12.62,1.57,1.15c.45.53.68,1.23.7,2.12,0,.75-.21,1.42-.63,2.01-.42.59-1.02,1.05-1.81,1.39-.79.34-1.7.5-2.74.5-1.12,0-2.11-.19-2.98-.57Z"/>
      <path d="m150.34,27.22l-8.03,18.87h-4.22l2.94-6.51-5.21-12.36h4.38l2.96,8,2.94-8h4.24Z"/>
    </g>
  </g>
</svg>