<?xml version="1.0" encoding="UTF-8"?>
<svg xmlns="http://www.w3.org/2000/svg" viewBox="0 0 684.73 452.14">
  <defs>
    <style>
      .cls-1 {
        fill: #98a48d;
      }

      .cls-2 {
        fill: #ef750d;
      }

      .cls-3 {
        stroke: #ef750d;
      }

      .cls-3, .cls-4, .cls-5, .cls-6, .cls-7, .cls-8, .cls-9, .cls-10, .cls-11, .cls-12, .cls-13, .cls-14, .cls-15, .cls-16, .cls-17, .cls-18, .cls-19, .cls-20, .cls-21, .cls-22, .cls-23, .cls-24, .cls-25, .cls-26 {
        fill: none;
      }

      .cls-3, .cls-4, .cls-5, .cls-6, .cls-7, .cls-8, .cls-9, .cls-10, .cls-11, .cls-12, .cls-13, .cls-14, .cls-15, .cls-16, .cls-17, .cls-18, .cls-19, .cls-20, .cls-21, .cls-22, .cls-23, .cls-24, .cls-26 {
        stroke-miterlimit: 10;
      }

      .cls-3, .cls-4, .cls-5, .cls-6, .cls-7, .cls-8, .cls-9, .cls-10, .cls-11, .cls-12, .cls-13, .cls-14, .cls-15, .cls-16, .cls-17, .cls-18, .cls-19, .cls-20, .cls-21, .cls-22, .cls-23, .cls-25, .cls-26 {
        stroke-width: 1.5px;
      }

      .cls-27 {
        fill: #fff;
      }

      .cls-28 {
        fill: #af8b6d;
      }

      .cls-4 {
        stroke: #e0bf85;
      }

      .cls-29 {
        fill: #ffffe6;
        mix-blend-mode: screen;
        opacity: .35;
      }

      .cls-30 {
        fill: #ffbf66;
      }

      .cls-31 {
        fill: #31212f;
      }

      .cls-5, .cls-8, .cls-25 {
        stroke: #5b465a;
      }

      .cls-5, .cls-9, .cls-24 {
        stroke-linecap: round;
      }

      .cls-32 {
        fill: #c1b376;
      }

      .cls-6 {
        stroke: #e5ca9a;
      }

      .cls-7 {
        stroke: #d3b997;
      }

      .cls-33 {
        fill: #6c7761;
      }

      .cls-34 {
        isolation: isolate;
      }

      .cls-35 {
        fill: #dbb997;
      }

      .cls-36 {
        fill: #5b465a;
      }

      .cls-37 {
        fill: #eac88b;
      }

      .cls-9, .cls-17, .cls-24 {
        stroke: #8c7e56;
      }

      .cls-10 {
        stroke: #fff2cc;
      }

      .cls-38 {
        fill: #fff3c0;
      }

      .cls-39 {
        fill: #f7bc81;
      }

      .cls-11 {
        stroke: #ba855d;
      }

      .cls-12 {
        stroke: #231f20;
      }

      .cls-40 {
        fill: #edcfb4;
      }

      .cls-41 {
        fill: #e05d4f;
      }

      .cls-13 {
        stroke: #f7eab5;
      }

      .cls-14 {
        stroke: #c6ac8f;
      }

      .cls-42 {
        fill: #d5a47b;
      }

      .cls-15 {
        stroke: #edd9c5;
      }

      .cls-43 {
        fill: #ffbf82;
      }

      .cls-16 {
        stroke: #e0d1af;
      }

      .cls-44 {
        fill: #998c53;
      }

      .cls-45 {
        fill: #d3691a;
      }

      .cls-46 {
        fill: #f9e4ca;
      }

      .cls-18 {
        stroke: #cc8f58;
      }

      .cls-47 {
        fill: #6b543c;
      }

      .cls-48 {
        fill: #9b6f48;
      }

      .cls-49 {
        fill: #ffe6c2;
      }

      .cls-19 {
        stroke: #b28f6f;
      }

      .cls-20 {
        stroke: #d6aa83;
      }

      .cls-50 {
        fill: #f2dbaa;
      }

      .cls-21 {
        stroke: #898050;
      }

      .cls-51 {
        fill: #ddcf94;
      }

      .cls-22 {
        stroke: #292944;
      }

      .cls-52 {
        fill: #ffe7b0;
      }

      .cls-53 {
        fill: #989dd8;
      }

      .cls-54 {
        fill: #efb745;
      }

      .cls-55 {
        fill: #231f20;
      }

      .cls-56 {
        fill: #e89d60;
      }

      .cls-23 {
        stroke: #dbc97d;
      }

      .cls-24 {
        stroke-width: 2px;
      }

      .cls-57 {
        fill: #ddb576;
      }

      .cls-58 {
        fill: #292944;
      }

      .cls-25 {
        stroke-linejoin: round;
      }

      .cls-59 {
        fill: #eaa56c;
      }

      .cls-60 {
        fill: #fec74f;
      }

      .cls-26 {
        stroke: #605534;
      }
    </style>
  </defs>
  <g class="cls-34">
    <g id="Layer_2" data-name="Layer 2">
      <g id="OBJECTS">
        <path class="cls-46" d="m35,451.39h623.62c6.48,0,18.7-32.02,20.69-37.48,5.15-14.1,7.07-25.42,3.8-39.94-6.37-28.31-25.35-50.88-47.07-69.24-24.44-20.65-52.39-37.58-72.93-62.11-6.1-7.28-11.53-15.28-14.69-24.24-7.09-20.11-2.01-42.27-3.51-63.53-1.86-26.37-14.46-51.83-34.29-69.31-13.43-11.84-30.07-19.92-47.61-23.45-19.83-3.99-37.85.16-57.48,3.12-37,5.58-74.62,3.68-110.94-5.55-29.03-7.38-59.61-18.5-90.45-15.34-28.72,2.95-56.15,15.62-77.66,34.77-26.67,23.73-44.88,57.51-51.82,93.6-3.51,18.26-4.85,36.95-8.92,55.06C53.28,283.08,1.24,329.6.02,380.6c-.61,25.4,12.06,51.96,34.98,70.79Z"/>
        <g>
          <g>
            <path class="cls-35" d="m147.18,153.8h67.82v-19.26h-67.82c-5.32,0-9.63,4.31-9.63,9.63h0c0,5.32,4.31,9.63,9.63,9.63Z"/>
            <path class="cls-35" d="m206.52,153.8h47.13v-19.26h-47.13c-5.32,0-9.63,4.31-9.63,9.63h0c0,5.32,4.31,9.63,9.63,9.63Z"/>
            <path class="cls-50" d="m207.17,138.11h46.49v12.12h-46.49c-3.35,0-6.06-2.71-6.06-6.06s2.71-6.06,6.06-6.06Z"/>
            <path class="cls-19" d="m200.86,153.18c-2.41-1.96-3.99-5.26-3.99-9.01s1.58-7.05,3.99-9.01"/>
            <path class="cls-19" d="m149.42,153.18c-2.41-1.96-3.99-5.26-3.99-9.01s1.58-7.05,3.99-9.01"/>
          </g>
          <g>
            <path class="cls-39" d="m144.28,109.13c-7.19,0-13.02,5.83-13.02,13.02s5.83,13.02,13.02,13.02h57.64v-26.03h-57.64Z"/>
            <path class="cls-39" d="m190.47,109.13c-7.19,0-13.02,5.83-13.02,13.02s5.83,13.02,13.02,13.02h63.71v-26.03h-63.71Z"/>
            <path class="cls-49" d="m191.34,113.95c-4.52,0-8.19,3.67-8.19,8.19s3.67,8.19,8.19,8.19h62.84v-16.38h-62.84Z"/>
            <path class="cls-18" d="m180.05,132.12c-2.14-2.17-3.54-5.83-3.54-9.97s1.4-7.8,3.54-9.97"/>
            <path class="cls-18" d="m141.23,132.12c-2.14-2.17-3.54-5.83-3.54-9.97s1.4-7.8,3.54-9.97"/>
          </g>
          <g>
            <rect class="cls-50" x="252.29" y="80.82" width="20.85" height="72.11" transform="translate(-23.17 86.08) rotate(-17.84)"/>
            <line class="cls-13" x1="244.36" y1="91.7" x2="262.61" y2="85.83"/>
            <line class="cls-13" x1="246.11" y1="96.57" x2="264.35" y2="90.7"/>
            <line class="cls-13" x1="263.08" y1="149.3" x2="281.32" y2="143.43"/>
          </g>
          <g>
            <polygon class="cls-52" points="312.04 145.58 285.74 154.4 263.65 85.75 289.95 76.93 312.04 145.58"/>
            <line class="cls-6" x1="269.06" y1="93.2" x2="289.64" y2="86.29"/>
            <ellipse class="cls-6" cx="287.24" cy="113.95" rx="6.14" ry="17.33" transform="translate(-21.1 93.46) rotate(-17.84)"/>
            <line class="cls-6" x1="284.98" y1="142.37" x2="305.56" y2="135.46"/>
            <line class="cls-6" x1="286.94" y1="148.44" x2="307.52" y2="141.54"/>
          </g>
          <g>
            <rect class="cls-35" x="509.49" y="136.4" width="76.13" height="48.34"/>
            <rect class="cls-28" x="523.7" y="146.58" width="47.72" height="4.82" rx="2.18" ry="2.18"/>
            <rect class="cls-35" x="507.19" y="125.15" width="80.74" height="15.95"/>
            <line class="cls-22" x1="585.62" y1="141.26" x2="509.49" y2="141.26"/>
          </g>
          <g>
            <path class="cls-37" d="m616.45,183.82h-84.96v-24.13h84.96c6.66,0,12.06,5.4,12.06,12.06h0c0,6.66-5.4,12.06-12.06,12.06Z"/>
            <path class="cls-37" d="m565.03,183.82h-36.45v-24.13h36.45c6.66,0,12.06,5.4,12.06,12.06h0c0,6.66-5.4,12.06-12.06,12.06Z"/>
            <path class="cls-50" d="m564.22,164.16h-35.64v15.18h35.64c4.19,0,7.59-3.4,7.59-7.59s-3.4-7.59-7.59-7.59Z"/>
            <path class="cls-22" d="m572.57,181.73c3.19-2.17,5.28-5.83,5.28-9.97s-2.09-7.8-5.28-9.97"/>
            <path class="cls-22" d="m578.83,181.73c3.19-2.17,5.28-5.83,5.28-9.97s-2.09-7.8-5.28-9.97"/>
            <path class="cls-57" d="m609.85,161.78h-24.09c2.73,2.17,4.53,5.83,4.53,9.97s-1.79,7.8-4.53,9.97h24.09c2.73-2.17,4.53-5.83,4.53-9.97s-1.79-7.8-4.53-9.97Z"/>
            <path class="cls-22" d="m616.75,181.73c3.19-2.17,5.28-5.83,5.28-9.97s-2.09-7.8-5.28-9.97"/>
            <line class="cls-4" x1="571.68" y1="170.34" x2="528.58" y2="170.34"/>
            <line class="cls-4" x1="570.56" y1="175.19" x2="528.58" y2="175.19"/>
          </g>
          <line class="cls-14" x1="74.4" y1="244.54" x2="268.4" y2="244.54"/>
          <line class="cls-14" x1="93.24" y1="154.4" x2="320.94" y2="154.4"/>
          <line class="cls-14" x1="484.64" y1="184.74" x2="644.43" y2="184.74"/>
          <g>
            <path class="cls-32" d="m191.62,194.65c3.23-1.7,6.48-4.48,6.5-8.13,0-1.63-.65-3.24-.42-4.86.17-1.14.77-2.17,1.47-3.09,2.51-3.27,6.29-5.27,9.84-7.36,3.56-2.09,7.17-4.54,8.97-8.26s1-8.98-2.69-10.82c-1.32-.66-2.86-.83-4.09-1.64-1.85-1.22-2.57-3.58-2.82-5.78-.31-2.71-.1-5.45-.22-8.17s-.59-5.53-2.08-7.81c-1.49-2.28-4.2-3.93-6.9-3.52-3.63.55-5.8,4.38-6.63,7.95-.83,3.57-.93,7.44-2.85,10.57-2.51,4.1-7.53,5.95-10.61,9.64-2.28,2.73-3.35,6.44-2.88,9.97.5,3.78,2.62,7.83.75,11.15-1.29,2.28-4.17,3.44-5.12,5.88-.92,2.37.15,4.83.23,7.23.18,5.39-4.23,9.23-4.51,14.32-.12,2.21,1.33,4.57,3.68,4.78,2.53.23,3.95-1.97,5.43-3.58,4.12-4.48,9.72-5.73,14.95-8.49Z"/>
            <path class="cls-21" d="m202.24,126.07c-2.45,4.97-3.47,10.63-2.9,16.14.26,2.46.82,4.98.18,7.36-1.45,5.43-8.3,7.82-10.31,13.07-1.92,5.01,1.1,11.3-1.88,15.76-1.94,2.89-6.06,4.32-6.78,7.72-.32,1.49.13,3.06-.08,4.57-.37,2.56-2.5,4.44-4.34,6.26-3.74,3.7-6.92,9.04-5.19,14.01"/>
            <rect class="cls-27" x="114.46" y="213.54" width="94.49" height="30.29"/>
            <line class="cls-16" x1="114.46" y1="219.26" x2="208.95" y2="219.26"/>
            <path class="cls-44" d="m136.53,163.33c-.49-1.18-.93-2.39-1.32-3.6-2.75-8.44-6.13-15.46-15.72-17.19-2.94-.53-5.96-.34-8.9-.86-4.58-.81-8.67-3.28-12.76-5.49-4.1-2.21-8.52-4.25-13.17-4.07-4.65.18-9.49,3.27-10.17,7.89-.47,3.16,1.04,6.27,2.77,8.95s3.78,5.25,4.63,8.33c1.06,3.86.11,8.15,1.69,11.83,1.57,3.66,5.37,5.92,9.23,6.89,3.85.97,7.88.91,11.83,1.33,9.25.98,8.6,11.01,15.69,14.47,1.63.79,3.48.92,5.27,1.21,5.79.95,11.24,3.88,15.25,8.18,1.74,1.87,3.22,3.99,5.2,5.6,1.27,1.03,2.79,1.85,4.42,1.9,2.81.08,5.25-2.17,6.36-4.76,3.84-8.91-1.86-21.15-8.72-26.96-1.84-1.55-3.87-2.87-5.62-4.52-2.65-2.51-4.52-5.72-5.94-9.12Z"/>
            <path class="cls-44" d="m197.52,193.23c-7.88,3.79-27.55,3.42-27.52,15.1,0,1.62.88,3.32,2.46,3.98,2.08.87,4.43-.23,6.58-.93,3.87-1.26,8.22-1.19,12.03.19,4.94,1.79,10.24,6.55,15.94,4.89,2.22-.65,3.28-2.27,5.66-2.45,3.17-.24,6.72,2.14,9.12,3.78,3.52,2.4,7.4,5.12,11.74,4.66,1.47-.16,2.98-.76,3.76-1.93.39-.59.57-1.29.68-1.98.45-2.89-.3-5.93-2.06-8.34-2.57-3.52-5.5-5.49-6.84-9.73-1.71-5.43-5.87-5.75-10.99-7.47-4.24-1.42-8.81-2.46-13.34-2.04-2.7.25-4.98,1.19-7.22,2.27Z"/>
            <path class="cls-26" d="m77.55,135.19c7.91,2.48,12.88,10.62,20.56,13.77,4.73,1.94,10.28,1.9,14.47,4.84,5.78,4.07,6.83,12.21,11.07,17.88,3.92,5.24,10.26,7.99,15.22,12.25,7.95,6.84,11.9,17.12,15.56,26.97"/>
            <path class="cls-44" d="m126.48,196.43c8.76-.03,17.66,3.26,25.14,7.66,1.29.76,2.61,1.63,3.32,2.94.72,1.32.61,3.2-.63,4.06-1,.7-2.34.51-3.57.52-2.67.02-5.31,1.14-7.17,3.05-3.1,3.19-4.17,8.45-8.23,10.29-1.69.77-3.65.77-5.36,1.49-4.34,1.81-1.93,6.96-2.12,10.41-.19,3.28-2.75,5.91-5.43,7.8-2.69,1.88-5.72,3.42-7.76,5.99-4.01,5.08-3.2,13.05-7.88,17.51-3.82,3.64-10.41,3.35-14.46-.04-4.05-3.38-5.6-9.18-4.66-14.37,1.07-5.93,5-11.23,5.06-17.25.04-3.24-1.07-6.41-1.04-9.66.05-5.71,3.74-11,8.65-13.93,2.42-1.44,5.14-2.41,7.3-4.22,2.2-1.84,3.64-4.39,5.42-6.64,3.21-4.07,8.08-5.6,13.41-5.62Z"/>
            <path class="cls-26" d="m97.59,269.31c-.84-5.8.52-11.89,3.73-16.82,1.53-2.34,3.46-4.44,4.69-6.94,1.12-2.3,1.6-4.84,2.09-7.35,1.35-7.02,3.38-14.84,9.62-18.48,2.22-1.3,4.84-1.95,6.83-3.57,1.35-1.11,2.32-2.6,3.42-3.95,4.48-5.52,11.54-10.64,19.13-9.32,3.46.6,6.46,2.66,9.95,3.16"/>
            <path class="cls-26" d="m236.46,221.44c-2.08-3.81-4.33-7.8-8.38-10.22-3.97-2.37-8.07-4.51-12.01-6.93-7.76-4.76-13.73-1.35-22.03-.69-3.8.3-7.62.13-11.42.41-4.33.32-8.8,1.29-12.01,3.78"/>
            <path class="cls-32" d="m177.31,213.54c-2.09-11.89-11.33-12.89-17.31-12.66-4.38.17-8.57,2.01-11.9,4.82-3.59,3.03-4.18,8.1-4.89,12.45-.34,2.07-.45,4.32-1.32,6.25-.91,2.03-2.64,3.61-3.94,5.39-4.36,5.99-.76,13.06.04,19.55.51,4.19.85,8.86.14,13-.83,4.84-1.76,9.62-1.81,14.55-.05,5.1,1.32,10.26,3.54,14.93,2.34,4.94,6.09,9.13,8.07,14.19,1.03,2.61,1.96,5.84,4.66,6.59,2.02.56,4.19-.69,5.35-2.44,1.16-1.74,1.55-3.87,1.9-5.94.53-3.09,1.07-6.19,1.28-9.31.21-3.12.12-6.33,1.13-9.29,1.13-3.29,3.52-5.98,5.23-9.01,2.46-4.38,3.4-9.99,1-14.41-1.62-2.99-4.65-5.29-5.27-8.63-1.16-6.18,6.43-11.02,6.42-17.3,0-3.4-2.24-6.32-3.76-9.37-1.57-3.16-2.43-6.67-2.48-10.19-.03-1.7.1-4.68,1.87-5.51,1.5-.71,2.65,2.35,2.65,2.35"/>
            <path class="cls-21" d="m155.68,311.7c-2.78-7.22-5.61-14.9-4.16-22.5.42-2.17,1.18-4.31,1.14-6.53-.15-7.86-6.28-12.26-3.97-20.76.93-3.44,2.41-6.74,2.98-10.25,1.19-7.38-3.67-12.44-3.85-19.37-.04-1.49.14-2.98.46-4.44.33-1.49.91-2.18,1.68-3.42,1.53-2.48,2.76-5.21,3.14-8.13.24-1.87.12-3.79.59-5.61.82-3.24,3.49-5.89,6.76-6.64,2.57-.59,5.48.23,7.68,1.63,2.91,1.86,4.41,4.83,5.68,7.92"/>
          </g>
        </g>
        <g>
          <g>
            <g>
              <path class="cls-2" d="m636.35,413.09c10.36,0,18.76,8.4,18.76,18.76s-8.4,18.76-18.76,18.76h-54.71v-37.52h54.71Z"/>
              <path class="cls-45" d="m598.15,413.09c10.36,0,18.76,8.4,18.76,18.76s-8.4,18.76-18.76,18.76h-91.83v-37.52h91.83Z"/>
              <path class="cls-27" d="m596.89,420.04c6.52,0,11.81,5.29,11.81,11.81s-5.29,11.81-11.81,11.81h-90.57v-23.62h90.57Z"/>
              <line class="cls-7" x1="569.37" y1="436.55" x2="506.32" y2="436.55"/>
              <line class="cls-7" x1="607.24" y1="436.55" x2="584.5" y2="436.55"/>
              <line class="cls-7" x1="608.3" y1="428" x2="506.32" y2="428"/>
              <path class="cls-22" d="m620.32,418.8c3.66,3.97,5.65,9,5.55,14.02-.1,5.02-2.29,9.99-6.1,13.86"/>
              <path class="cls-22" d="m626.42,418.8c3.66,3.97,5.65,9,5.55,14.02s-2.29,9.99-6.1,13.86"/>
            </g>
            <g>
              <path class="cls-47" d="m626.98,383.28c8.24,0,14.92,6.68,14.92,14.92s-6.68,14.92-14.92,14.92h-42.04v-29.85h42.04Z"/>
              <path class="cls-48" d="m598.07,383.28c8.24,0,14.92,6.68,14.92,14.92s-6.68,14.92-14.92,14.92h-102.9v-29.85h102.9Z"/>
              <path class="cls-27" d="m597.07,388.81c5.19,0,9.39,4.21,9.39,9.39s-4.21,9.39-9.39,9.39h-101.9v-18.79h101.9Z"/>
              <line class="cls-7" x1="575.18" y1="401.94" x2="495.17" y2="401.94"/>
              <line class="cls-7" x1="606.15" y1="401.94" x2="587.21" y2="401.94"/>
              <line class="cls-7" x1="606.15" y1="395.14" x2="495.17" y2="395.14"/>
            </g>
            <g>
              <g>
                <rect class="cls-42" x="559.25" y="287.87" width="20.46" height="121.1" transform="translate(-24.85 44.32) rotate(-4.36)"/>
                <g>
                  <line class="cls-11" x1="575.64" y1="294.74" x2="562.64" y2="295.73"/>
                  <line class="cls-11" x1="576.14" y1="301.35" x2="567.92" y2="301.98"/>
                  <line class="cls-11" x1="576.65" y1="307.96" x2="568.42" y2="308.59"/>
                  <line class="cls-11" x1="577.15" y1="314.58" x2="568.93" y2="315.21"/>
                  <line class="cls-11" x1="577.65" y1="321.19" x2="564.66" y2="322.18"/>
                  <line class="cls-11" x1="578.16" y1="327.81" x2="569.94" y2="328.43"/>
                  <line class="cls-11" x1="578.66" y1="334.42" x2="570.44" y2="335.05"/>
                  <line class="cls-11" x1="579.17" y1="341.03" x2="570.94" y2="341.66"/>
                  <line class="cls-11" x1="579.67" y1="347.65" x2="566.68" y2="348.64"/>
                  <line class="cls-11" x1="580.18" y1="354.26" x2="571.95" y2="354.89"/>
                  <line class="cls-11" x1="580.68" y1="360.87" x2="572.46" y2="361.5"/>
                  <line class="cls-11" x1="581.19" y1="367.49" x2="572.96" y2="368.11"/>
                  <line class="cls-11" x1="581.69" y1="374.1" x2="568.69" y2="375.09"/>
                  <line class="cls-11" x1="582.19" y1="380.71" x2="573.97" y2="381.34"/>
                  <line class="cls-11" x1="582.7" y1="387.33" x2="574.48" y2="387.96"/>
                  <line class="cls-11" x1="583.2" y1="393.94" x2="574.98" y2="394.57"/>
                  <line class="cls-11" x1="583.71" y1="400.56" x2="570.71" y2="401.55"/>
                </g>
              </g>
              <g>
                <rect class="cls-2" x="556.87" y="328.47" width="9.14" height="93.67" transform="translate(-47.82 83.98) rotate(-8.21)"/>
                <path class="cls-47" d="m563.9,421.64h9.14v3.22c0,.86-.7,1.56-1.56,1.56h-6.02c-.86,0-1.56-.7-1.56-1.56v-3.22h0Z" transform="translate(-54.71 85.49) rotate(-8.21)"/>
                <line class="cls-12" x1="563.6" y1="422.32" x2="572.65" y2="421.01"/>
                <polyline class="cls-46" points="550.23 329.6 553.58 320.85 559.27 328.3"/>
                <polygon class="cls-58" points="553.58 320.85 552.09 324.74 556.11 324.16 553.58 320.85"/>
              </g>
              <g>
                <path class="cls-9" d="m579.42,425.87s4.22.53,2.84-2.81c-.46-1.12-5.18-12.53-5.96-14.42-.78-1.89-3.14-4.77-4.21-7.36-1.07-2.59.02-3.53.02-3.53"/>
                <g>
                  <path class="cls-47" d="m579.64,436.11c1.46-.6,2.15-2.27,1.55-3.73l-.94-2.27.78-.32-47.56-115.21-8.44,3.49,47.56,115.21.78-.32.94,2.27c.6,1.46,2.27,2.15,3.73,1.55l1.6-.66Z"/>
                  <path class="cls-47" d="m525.49,308.72l-.56,9.39,8.54-3.53-7.02-6.25c-.36-.32-.93-.08-.96.4Z"/>
                </g>
                <line class="cls-17" x1="581.04" y1="429.78" x2="572.59" y2="433.27"/>
                <line class="cls-17" x1="533.47" y1="314.58" x2="524.93" y2="318.11"/>
                <line class="cls-17" x1="565.86" y1="393.06" x2="557.49" y2="396.7"/>
              </g>
              <g>
                <path class="cls-24" d="m602.72,323.34s-5.34-3.82-6.41-.37c-.36,1.16-4,12.96-4.6,14.91-.6,1.95.1,5.89-.73,8.57-.83,2.68-3.17,2.44-3.17,2.44"/>
                <g>
                  <path class="cls-32" d="m607.97,314.95c-1.83-.56-3.68.22-4.15,1.73l-.72,2.35-.98-.3-36.67,119.12,10.56,3.21,36.67-119.12-.98-.3.72-2.35c.46-1.51-.64-3.18-2.47-3.74l-2-.61Z"/>
                  <path class="cls-32" d="m568.91,447.75l7.23-6.64-10.69-3.25,2.26,9.53c.12.49.83.7,1.2.36Z"/>
                </g>
                <line class="cls-17" x1="602.12" y1="318.73" x2="612.68" y2="321.94"/>
                <line class="cls-17" x1="565.45" y1="437.85" x2="576.14" y2="441.1"/>
                <line class="cls-17" x1="590.44" y1="356.71" x2="601.05" y2="359.76"/>
              </g>
              <polygon class="cls-30" points="593.15 451.01 549.4 451.01 541.93 364.5 600.62 364.5 593.15 451.01"/>
              <line class="cls-22" x1="542.74" y1="373.85" x2="599.69" y2="373.85"/>
              <line class="cls-22" x1="548.53" y1="440.98" x2="594.24" y2="440.98"/>
            </g>
            <g>
              <path class="cls-31" d="m56.25,386.88h90.65v-25.74H56.25c-7.11,0-12.87,5.76-12.87,12.87h0c0,7.11,5.76,12.87,12.87,12.87Z"/>
              <path class="cls-8" d="m69.12,361.14c-7.11,0-12.87,5.76-12.87,12.87h0c0,7.11,5.76,12.87,12.87,12.87"/>
              <path class="cls-8" d="m74.18,361.14c-7.11,0-12.87,5.76-12.87,12.87h0c0,7.11,5.76,12.87,12.87,12.87"/>
              <path class="cls-8" d="m121.7,361.14c-7.11,0-12.87,5.76-12.87,12.87h0c0,7.11,5.76,12.87,12.87,12.87"/>
              <path class="cls-36" d="m135.57,386.88h63v-25.74h-63c-7.11,0-12.87,5.76-12.87,12.87h0c0,7.11,5.76,12.87,12.87,12.87Z"/>
              <path class="cls-27" d="m136.44,365.91h62.14v16.2h-62.14c-4.47,0-8.1-3.63-8.1-8.1s3.63-8.1,8.1-8.1Z"/>
              <line class="cls-22" x1="145.48" y1="371.15" x2="128.87" y2="371.15"/>
              <line class="cls-22" x1="198.57" y1="377.69" x2="128.87" y2="377.69"/>
              <path class="cls-25" d="m87.5,376.32c.63-3.21,3.73-5.3,6.94-4.67,1.8.35,3.25,1.48,4.06,2.98.54-4-2.12-7.78-6.13-8.57-4.16-.81-8.2,1.9-9.01,6.07-.75,3.85,1.51,7.58,5.15,8.77-.91-1.28-1.33-2.91-1-4.57Z"/>
              <g>
                <line class="cls-5" x1="77.12" y1="367.07" x2="77.12" y2="368.66"/>
                <line class="cls-5" x1="77.12" y1="370.55" x2="77.12" y2="372.13"/>
                <line class="cls-5" x1="79.65" y1="369.6" x2="78.06" y2="369.6"/>
                <line class="cls-5" x1="76.18" y1="369.6" x2="74.59" y2="369.6"/>
              </g>
              <g>
                <line class="cls-5" x1="99.51" y1="379.01" x2="99.51" y2="380.6"/>
                <line class="cls-5" x1="99.51" y1="382.48" x2="99.51" y2="384.07"/>
                <line class="cls-5" x1="102.04" y1="381.54" x2="100.45" y2="381.54"/>
                <line class="cls-5" x1="98.57" y1="381.54" x2="96.98" y2="381.54"/>
              </g>
              <g>
                <line class="cls-5" x1="102.98" y1="363.38" x2="102.98" y2="364.97"/>
                <line class="cls-5" x1="102.98" y1="366.85" x2="102.98" y2="368.44"/>
                <line class="cls-5" x1="105.51" y1="365.91" x2="103.92" y2="365.91"/>
                <line class="cls-5" x1="102.04" y1="365.91" x2="100.45" y2="365.91"/>
              </g>
              <line class="cls-22" x1="198.57" y1="371.15" x2="155.81" y2="371.15"/>
            </g>
            <g>
              <path class="cls-38" d="m75.58,326.35c-9.61,0-17.4,7.79-17.4,17.4s7.79,17.4,17.4,17.4h77.04v-34.79h-77.04Z"/>
              <path class="cls-51" d="m137.32,326.35c-9.61,0-17.4,7.79-17.4,17.4s7.79,17.4,17.4,17.4h85.16v-34.79h-85.16Z"/>
              <path class="cls-27" d="m138.48,332.8c-6.05,0-10.95,4.9-10.95,10.95s4.9,10.95,10.95,10.95h83.99v-21.9h-83.99Z"/>
              <line class="cls-23" x1="164" y1="348.1" x2="222.47" y2="348.1"/>
              <line class="cls-23" x1="128.88" y1="348.1" x2="149.98" y2="348.1"/>
              <path class="cls-41" d="m193.48,340.08c3.84,5.97,1.48,14.13,5.95,19.75,1.07,1.35,2.61,2.39,3.56,3.82,3.72,5.56,3.24,11.29,3.24,11.29l16.71-.74s.67-3.97-.93-6.45c-1.91-2.97-5.08-5.04-7.52-7.62-2.73-2.89-3.45-6.89-3.47-10.56-.01-2.87-.47-7.38-2.74-9.41"/>
              <line class="cls-23" x1="127.9" y1="340.18" x2="222.47" y2="340.18"/>
              <path class="cls-23" d="m116.42,331.21c-6.16,6.65-6.41,20.72.7,26.42"/>
              <path class="cls-23" d="m70.94,331.21c-6.16,6.65-6.41,20.72.7,26.42"/>
              <path class="cls-23" d="m76.99,331.21c-6.16,6.65-6.41,20.72.7,26.42"/>
            </g>
            <g>
              <path class="cls-60" d="m23.64,386.84h137.3c10.76,0,19.5,8.74,19.5,19.5h0c0,10.76-8.74,19.5-19.5,19.5H23.64v-38.99h0Z" transform="translate(204.07 812.66) rotate(-180)"/>
              <path class="cls-54" d="m90.12,417.67c-2.55-1.93-4.33-6.28-4.33-11.34s1.78-9.42,4.33-11.34v-1.07h-28.24c-4.02,0-7.28,5.56-7.28,12.41s3.26,12.41,7.28,12.41h28.24v-1.07Z"/>
              <path class="cls-60" d="m106.74,386.84h79.78c10.76,0,19.5,8.74,19.5,19.5h0c0,10.76-8.74,19.5-19.5,19.5h-79.78v-38.99h0Z" transform="translate(312.74 812.66) rotate(-180)"/>
              <path class="cls-22" d="m116.48,389.47c-5.82,3.37-9.75,9.65-9.75,16.87s3.93,13.49,9.75,16.87"/>
              <path class="cls-22" d="m37.64,389.47c-5.82,3.37-9.75,9.65-9.75,16.87s3.93,13.49,9.75,16.87"/>
              <path class="cls-22" d="m57,389.47c-5.82,3.37-9.75,9.65-9.75,16.87s3.93,13.49,9.75,16.87"/>
              <path class="cls-54" d="m40.57,406.33c0-10.77,8.73-19.5,19.5-19.5h-7.8c-10.77,0-19.5,8.73-19.5,19.5s8.73,19.5,19.5,19.5h7.8c-10.77,0-19.5-8.73-19.5-19.5Z"/>
              <path class="cls-54" d="m99.56,406.33c0-10.77,8.73-19.5,19.5-19.5h-7.8c-10.77,0-19.5,8.73-19.5,19.5s8.73,19.5,19.5,19.5h7.8c-10.77,0-19.5-8.73-19.5-19.5Z"/>
              <path class="cls-40" d="m127.54,394.06h78.47v24.54h-78.47c-6.78,0-12.27-5.49-12.27-12.27s5.49-12.27,12.27-12.27Z"/>
              <line class="cls-20" x1="115.62" y1="409.25" x2="177.49" y2="409.25"/>
              <line class="cls-20" x1="189.43" y1="409.25" x2="206.01" y2="409.25"/>
              <path class="cls-47" d="m152.39,400.68l-13.41.12c1.12,5.75,3.2,11.32,6.12,16.4l14.78-.2c-3.79-4.91-6.24-10.24-7.49-16.31Z"/>
              <path class="cls-38" d="m192.1,400.68l-11.27.09c.57,4.43,1.64,8.71,3.13,12.63l11.97-.16c-1.94-3.78-3.19-7.88-3.84-12.56Z"/>
              <line class="cls-20" x1="206.01" y1="400.68" x2="116.48" y2="400.68"/>
            </g>
            <g>
              <path class="cls-1" d="m197.77,451.39h-90.01v-25.56h90.01c7.06,0,12.78,5.72,12.78,12.78h0c0,7.06-5.72,12.78-12.78,12.78Z"/>
              <path class="cls-33" d="m143.3,451.39H53.28v-25.56h90.01c7.06,0,12.78,5.72,12.78,12.78h0c0,7.06-5.72,12.78-12.78,12.78Z"/>
              <path class="cls-22" d="m143.3,425.83c7.06,0,12.78,5.72,12.78,12.78h0c0,7.06-5.72,12.78-12.78,12.78"/>
              <path class="cls-22" d="m195.94,425.83c5.08,0,9.21,5.72,9.21,12.78h0c0,7.06-4.12,12.78-9.21,12.78"/>
              <path class="cls-27" d="m142.44,430.56H53.28v16.09h89.16c4.44,0,8.04-3.6,8.04-8.04s-3.6-8.04-8.04-8.04Z"/>
              <line class="cls-22" x1="53.28" y1="442.79" x2="149.31" y2="442.79"/>
              <path class="cls-2" d="m117.42,436.24s1.11,7.39-4.39,12.7l-4.48-2.28-7.26,2.28c5.49-5.31,4.39-12.7,4.39-12.7"/>
              <line class="cls-22" x1="150.13" y1="436.24" x2="53.28" y2="436.24"/>
            </g>
          </g>
          <g>
            <polygon class="cls-29" points="356.73 116.71 167.56 451.39 570.29 451.39 474.82 116.71 356.73 116.71"/>
            <line class="cls-22" x1="415.77" y1="86.29" x2="415.77"/>
            <circle class="cls-27" cx="415.77" cy="125.3" r="20.2" transform="translate(199.06 501.6) rotate(-76.83)"/>
            <polygon class="cls-60" points="415.77 77.81 356.73 116.71 474.82 116.71 415.77 77.81"/>
            <line class="cls-22" x1="365" y1="110.58" x2="466.55" y2="110.58"/>
          </g>
          <g>
            <g>
              <path class="cls-41" d="m391.38,188.49c15.26-1.48,30.72,3.85,43.49,13.3,12.77,9.45,21.74,20.81,28.76,37.62l-19.82,14.61s-3.04-14.94-14.02-31.93c-6.49-10.05-19.89-21.36-33.48-24.33"/>
              <path class="cls-41" d="m383.33,187.53c11.27-10.39,26.82-15.47,42.7-15.63,15.88-.16,29.89,3.48,45.64,12.65l-7,23.61s-11.44-10.08-30.44-17.01c-11.24-4.1-28.75-5.03-41.37.79"/>
              <path class="cls-12" d="m383.28,190.23c11.14-7.11,24.73-9.46,37.94-9.39,7.31.04,14.67.78,21.69,2.84s13.71,5.48,19.08,10.44"/>
              <path class="cls-12" d="m396.35,193.44c11.26.9,22.26,4.8,31.57,11.2,9.31,6.4,16.89,15.28,21.76,25.47"/>
              <path class="cls-43" d="m340.18,260.29l-1.15,22.51s4.31,18.1,26.72,18.1,29.55-18.7,29.55-18.7l-3.98-27.37"/>
              <g>
                <path class="cls-56" d="m337.36,234.66c-2.68-2.15-6.4-3.02-9.75-2.24-2.69.62-4.82,2.58-5.83,4.85-1.01,2.27-1.02,4.82-.48,7.21,1.14,5.08,5.02,9.88,10.6,11.55,1.08.32,2.24.53,3.37.37,2.81-.39,4.57-2.79,5.97-4.96"/>
                <path class="cls-12" d="m324.51,241.04c5.38,1.96,10.62,4.24,15.66,6.81"/>
              </g>
              <g>
                <path class="cls-56" d="m395.2,234.66c2.68-2.15,6.4-3.02,9.75-2.24,2.69.62,4.82,2.58,5.83,4.85,1.01,2.27,1.02,4.82.48,7.21-1.14,5.08-5.02,9.88-10.6,11.55-1.08.32-2.24.53-3.37.37-2.81-.39-4.57-2.79-5.97-4.96"/>
                <path class="cls-12" d="m408.05,241.04c-5.38,1.96-10.62,4.24-15.66,6.81"/>
              </g>
              <path class="cls-43" d="m332.95,246.44c1.29,6.42,2.98,12.93,6.68,18.33,7.3,10.65,21.2,14.44,33.43,12.09,39.97-7.68,32.86-97.23-8.91-96.72-12.41.15-23.04,5.29-28.88,16.57-7.91,15.28-5.58,33.58-2.33,49.73Z"/>
              <path class="cls-31" d="m383.5,181.66c-.97-.43-1.96-.85-2.97-1.25-5.81-2.3-12.16-4.74-18.53-4.12-6.56.64-13.01,3.01-18.5,6.65-2.33,1.54-4.51,3.32-6.6,5.18-1.6,1.42-3.17,2.89-4.5,4.55-2.54,3.17-5.84,5.45-8.09,8.75-2.56,3.76-4.85,7.96-5.04,12.61-.43,10.49,6,18.73,12.45,26.32-.11-3.37-.22-6.77.32-10.09.6-3.68,2.54-9.28,5.86-11.39,3.35,5.43,9.22,8.6,15.72,7.33,2.95-.57,5.67-1.95,8.48-3.01,3.55-1.35,6.19-1.15,9.79-.92,2.8.17,6.39-.32,9.1-1.1,3.43-.98,9.06-6.47,9.06-6.47,0,0,.07,4.82,2.22,8.48.96,1.63,2.7,2.65,3.95,4.06,3.06,3.47,2.96,12.44,2.96,12.44,0,0,3.63-2.31,4.21-3.06,1.07-1.39,1.98-2.9,2.71-4.49,1.42-3.1,2.36-6.78,2.1-10.22-.58-7.91-1.24-15.51-4.91-22.75-4.3-8.48-11.22-13.68-19.81-17.5Z"/>
              <path class="cls-41" d="m401.56,194.09c-4.59,2.84-10.77,5.31-16.37,6.43-17.38,3.46-38.34.4-51.38-10.65l-10.64,10.59c15.94,16.88,41.55,18.73,62.79,13.44,6.84-1.7,14.39-5.48,20.01-9.82l-4.41-9.98Z"/>
              <path class="cls-12" d="m362.76,236.68c.25,4.49.09,9.11-1.14,13.42-.75,2.64-1.07,7.35,2.07,8.62,2.11.86,5.09-.36,6.69-1.73"/>
              <path class="cls-12" d="m365.74,264.53c1.68-1.12,3.48-2.15,5.46-2.53,1.98-.38,4.21,0,5.66,1.4"/>
              <path class="cls-12" d="m375.55,235.92c.98.31,2.06.1,3-.31.94-.42,1.77-1.03,2.64-1.58,2.97-1.86,6.43-2.91,9.93-3.03"/>
              <path class="cls-12" d="m350.57,236.07c-1.74-1.14-3.5-2.28-5.44-3.05-1.93-.77-4.08-1.14-6.11-.67"/>
              <path class="cls-55" d="m385.77,246.98c0,1.71-1.09,3.1-2.44,3.1s-2.44-1.39-2.44-3.1,1.09-3.1,2.44-3.1,2.44,1.39,2.44,3.1Z"/>
              <path class="cls-55" d="m349.04,246.98c0,1.71-1.09,3.1-2.44,3.1s-2.44-1.39-2.44-3.1,1.09-3.1,2.44-3.1,2.44,1.39,2.44,3.1Z"/>
              <g>
                <ellipse class="cls-10" cx="346.3" cy="243.3" rx="12.97" ry="14.47"/>
                <ellipse class="cls-10" cx="382.83" cy="243.3" rx="12.97" ry="14.47"/>
                <line class="cls-10" x1="359.01" y1="240.4" x2="369.86" y2="240.4"/>
              </g>
              <path class="cls-12" d="m340.89,266.62c3.59,4.86,8.11,9.19,13.46,11.61,13.45,6.08,29.53-.28,37.6-12.99.15-.23.29-.47.43-.7"/>
              <path class="cls-12" d="m400.56,193.88c2.27,2.65,4.01,5.75,5.1,9.06"/>
              <path class="cls-12" d="m394.3,188.24c3.17-.15,6.35-.04,9.5.35"/>
              <path class="cls-12" d="m325.43,198.06c16.34,18.59,47.72,18.62,68.98,9.69,3.73-1.57,7.41-3.35,10.55-5.94"/>
              <path class="cls-12" d="m331.88,191.78s7.21,11.07,33.12,12.51c27.38,1.52,37.18-8.69,37.18-8.69"/>
            </g>
            <g>
              <polyline class="cls-53" points="451.99 346.45 403.13 283.08 368.05 300.97 331.09 283.4 282.12 349.38 275.36 451.39 460.41 451.39 451.99 347.91"/>
              <path class="cls-53" d="m339.03,280.98s-44.26,8.73-57.69,17.79-26.18,25.51-36.25,53.7c-10.07,28.19-19.13,67.12-14.43,79.88s11.75,19.05,27.86,19.05h30.1l17.96-105.56"/>
              <path class="cls-12" d="m241.96,398.2c5.63-5.46,13.41-8.39,21.23-9.02,7.82-.64,15.69.88,23.13,3.38"/>
              <path class="cls-12" d="m288.62,451.39l16.94-94.68c.27-3.32-.45-9.47-1.54-16.63-1-6.56-4.53-15.11-8-20.77"/>
              <path class="cls-53" d="m395.82,280.98s44.26,8.73,57.69,17.79c13.42,9.06,32.4,34.34,45.01,61.49,13.11,28.23,23.62,57.14,18.92,69.89s-15.14,21.23-31.25,21.23-29.39-8.99-29.39-8.99l-19.48-100.18"/>
              <path class="cls-12" d="m456.79,442.4c-3.08-15.86-6.17-31.71-9.25-47.57-2.21-11.34-4.41-22.69-6.62-34.03-2.23-11.46-4.51-21.93.45-33.27.53-1.21,1.13-2.39,1.79-3.53"/>
              <path class="cls-53" d="m339.47,274.03l-8.38,9.37s7.94,26.9,26.92,32.34l10.01-12.29,11.38,12.11c14.28-4,23.72-32.49,23.72-32.49l-9.02-9.05s-15.31,21.32-26.95,21.32-27.68-21.32-27.68-21.32Z"/>
              <path class="cls-12" d="m331.09,283.4s7.94,26.9,26.92,32.34l10.01-12.29,11.38,12.11c14.28-4,23.72-32.49,23.72-32.49"/>
              <path class="cls-12" d="m453.95,399.58c2.24-.73,4.47-1.46,6.71-2.19,4.61-1.51,9.25-3.02,14.05-3.71,11.58-1.67,23.81,1.76,32.83,9.22"/>
              <rect class="cls-12" x="401.34" y="355.38" width="34.17" height="4.88"/>
              <line class="cls-12" x1="368.02" y1="303.45" x2="368.02" y2="451.39"/>
              <path class="cls-12" d="m486.35,393.66c7.22-.75,16.5.65,22.57,2.2"/>
            </g>
            <g>
              <path class="cls-59" d="m274.52,426.34s14,2.29,20.6,2.3c3.6,0,7.21-.29,10.65-1.05,3.49-.77,6.21-2.28,9.3-3.7,3.27-1.51,6.49-2.53,10.19-3.18,2.26-.4,5.81-1.65,6.75-3.47,1.03-1.99-.97-4.31-3.32-5.45-7.67-3.72-18.2,0-25.76-3.89"/>
              <g>
                <polygon class="cls-2" points="290.83 352.65 296.54 350.11 333 420.68 327.29 423.21 290.83 352.65"/>
                <path class="cls-47" d="m290.48,348.38l2.69-1.19c.83-.37,1.83-.04,2.23.73l1.14,2.2-5.71,2.54-1.14-2.2c-.4-.77-.05-1.7.79-2.07Z"/>
                <line class="cls-12" x1="296.54" y1="350.11" x2="290.83" y2="352.65"/>
                <polyline class="cls-46" points="333 420.68 333.33 428.11 327.29 423.21"/>
                <polygon class="cls-58" points="333.33 428.11 333.19 424.81 330.65 425.93 333.33 428.11"/>
              </g>
              <path class="cls-43" d="m267.93,394.74c3.26-2.8,6.6-5.51,10.03-8.14,2.72-2.08,6.94-3.02,10.38-3.17,3.94-.18,7.86.54,11.68,1.44,2.95.7,5.63,2.05,8.48,2.98,5.14,1.67,7.28,3.83,10.52,7.81,1.87,2.3,3.76,6.29,6.35,8.47,1.29,1.08,3.08,3.31,1.63,5.22-.83,1.1-2.79,2.33-4.22,2.56-6.54,1.08-10.86-3.29-15.73-6.62-1.3-.89-2.61-1.78-4.03-2.49-4.61-2.3-10.22-2.54-15.28-1.27"/>
              <path class="cls-43" d="m269.59,435.5h26.09c1.76,0,5.38-1.24,6.22-2.02,2.77-2.56,2.77-4.18,2.11-5.21,2.77-.05,5.24-1.82,6.54-4.13,1.29-2.31.83-4.53-1.06-6.27,3.27.01,5.51-4.19,5.02-7.76-.5-3.57-2.87-6.45-5.31-8.85-9.07-8.91-16.54-20.39-29.03-14.85-4.89,2.17-16.5,11.75-20.68,14.9-4.57,3.44-8.4,8.26-8.65,13.71-.43,9.34,8.08,20.49,18.76,20.49Z"/>
              <path class="cls-12" d="m304.02,428.56c-.73-.7-1.53-1.34-2.38-1.92-.68-.46-1.4-.89-2.15-1.25-3.07-1.47-6.59-1.84-10.02-2.19"/>
              <path class="cls-12" d="m310.25,418.16c-1.01-.54-1.78-1.4-2.68-2.09-1.38-1.05-3.49-2.31-5.17-2.82-1.4-.42-2.81-.84-4.21-1.27-2.55-.77-5.19-1.54-7.86-1.32"/>
              <path class="cls-12" d="m290.83,394.74c3,.22,6.06.46,8.82,1.58,1.57.64,3,1.55,4.38,2.5,2.24,1.53,4.33,3.14,6.22,5.01,1.68,1.67,3.52,2.94,4.09,5.31.21.88.32,1.5.42,2.39"/>
              <path class="cls-12" d="m322.95,401.5c-1.14.42-2.29.84-3.43,1.27-.56.2-1.14.43-1.51.86-.38.44-.48,1.04-.43,1.6.12,1.47,1.39,2.91,2.98,2.97.48.02.96-.08,1.42-.21,1.66-.45,3.22-1.22,4.54-2.26"/>
              <path class="cls-12" d="m262.86,433.87c-3.95-2.56-6.34-7.05-6.13-11.52"/>
              <path class="cls-12" d="m258.65,405.63c3.33-4.75,10.48-12.34,15.11-16.03"/>
            </g>
            <g>
              <path class="cls-27" d="m402.44,428.15c-26.23,1.56-31.14,15.39-31.14,15.39,0,0-4.9-13.83-31.14-15.39-16.77-1-91.04,8.81-91.04,8.81v11.85h244.34v-11.85s-74.27-9.81-91.04-8.81Z"/>
              <path class="cls-15" d="m493.47,439.91s-74.27-6.48-91.04-5.82c-26.23,1.03-31.14,10.06-31.14,10.06,0,0-4.9-9.03-31.14-10.06-16.77-.66-91.04,5.82-91.04,5.82"/>
              <path class="cls-15" d="m493.47,442.15s-74.27-3.53-91.04-3.17c-26.23.56-31.14,6.83-31.14,6.83,0,0-4.9-6.27-31.14-6.83-16.77-.36-91.04,3.17-91.04,3.17"/>
              <rect class="cls-60" x="244.8" y="445.8" width="253" height="5.19"/>
            </g>
            <g>
              <path class="cls-43" d="m439.11,398.77c-3.26,3.15-6.49,6.29-8.7,10.4-2.53,4.7-7.09,15.23-2.86,20.44,1.93,2.37,7.32,1.78,8.93-.78.57,2.94,2.6,4.94,5.41,5.25,2.81.31,5.89-.93,8.14-2.69,1.39,2.22,3.95,2.23,6.4,2.69,3.76.7,8.6-1.98,8.6-1.98,2.38,1.4,4.91,2.21,7.52,3.03,3.67,1.16,9.56-3.84,10.12-4.09.61-.27,4.27-.18,6.36-.9,5.08-5.49,4.45-8.86,3.63-12.93-.82-4.07-2.69-7.87-4.97-11.35-2.13-3.24-4.68-6.27-7.92-8.39-3.56-2.34-7.25-2.15-11.1-3.37-4.29-1.36-8.64-1.83-13.09-2.46-5.67-.79-11.46-1.15-17.1-.08-7.24,1.37-12.67,6.37-16.74,12.59-4.17,6.38-6.6,14.37-11.72,19.98-1.32,1.45-3.02,2.84-2.72,5.12.19,1.45,1.18,2.65,2.45,3.24,4.81,2.24,10.04-.45,13.41-4.29,3.03-3.45,4.99-7.78,7.52-11.66,2.51-3.84,5.59-7.26,9.1-10.08"/>
              <path class="cls-12" d="m436.07,430.14c2.58-8.71,7.66-15.17,13.29-19.97"/>
              <path class="cls-12" d="m450.04,432.85s1.27-8.01,8.95-13.23"/>
              <path class="cls-12" d="m426.04,425.03c-.44-4.48.43-9.03,2.17-13.1,1.99-4.66,5.23-8.68,9.14-11.65"/>
              <path class="cls-12" d="m408.29,426.09c.92,1.14,2.02,2.34,3.38,2.85,1.71.65,3.65-.64,4.56-2.12.69-1.13.63-2.29-.43-3.09-1.12-.85-2.24-1.69-3.35-2.54"/>
              <path class="cls-12" d="m465.03,432.55c2.44-1.07,4.54-2.71,7-3.72"/>
              <path class="cls-12" d="m482.78,431.16c2.96-2.19,5.19-5.36,6.25-8.88"/>
            </g>
          </g>
          <line class="cls-12" x1="22.01" y1="451.39" x2="661.84" y2="451.39"/>
          <g>
            <g>
              <line class="cls-17" x1="478.76" y1="290.3" x2="478.76" y2="293.68"/>
              <line class="cls-17" x1="478.76" y1="297.78" x2="478.76" y2="301.15"/>
              <line class="cls-17" x1="484.19" y1="295.73" x2="480.81" y2="295.73"/>
              <line class="cls-17" x1="476.72" y1="295.73" x2="473.34" y2="295.73"/>
            </g>
            <g>
              <line class="cls-17" x1="449.04" y1="139.56" x2="449.04" y2="142.94"/>
              <line class="cls-17" x1="449.04" y1="147.04" x2="449.04" y2="150.41"/>
              <line class="cls-17" x1="454.47" y1="144.99" x2="451.09" y2="144.99"/>
              <line class="cls-17" x1="446.99" y1="144.99" x2="443.62" y2="144.99"/>
            </g>
            <g>
              <line class="cls-17" x1="350.19" y1="158.41" x2="350.19" y2="161.78"/>
              <line class="cls-17" x1="350.19" y1="165.88" x2="350.19" y2="169.26"/>
              <line class="cls-17" x1="355.62" y1="163.83" x2="352.24" y2="163.83"/>
              <line class="cls-17" x1="348.14" y1="163.83" x2="344.77" y2="163.83"/>
            </g>
            <g>
              <line class="cls-17" x1="237.63" y1="257.32" x2="237.63" y2="260.7"/>
              <line class="cls-17" x1="237.63" y1="264.79" x2="237.63" y2="268.17"/>
              <line class="cls-17" x1="243.06" y1="262.75" x2="239.68" y2="262.75"/>
              <line class="cls-17" x1="235.58" y1="262.75" x2="232.2" y2="262.75"/>
            </g>
            <path class="cls-3" d="m482.01,247.85c0,1.79-1.45,3.24-3.24,3.24s-3.24-1.45-3.24-3.24,1.45-3.24,3.24-3.24,3.24,1.45,3.24,3.24Z"/>
            <circle class="cls-3" cx="488.55" cy="222.51" r="6.49"/>
            <path class="cls-3" d="m278.6,193.19c0,1.79-1.45,3.24-3.24,3.24s-3.24-1.45-3.24-3.24,1.45-3.24,3.24-3.24,3.24,1.45,3.24,3.24Z"/>
            <path class="cls-3" d="m234.82,307.96c0,1.79-1.45,3.24-3.24,3.24s-3.24-1.45-3.24-3.24,1.45-3.24,3.24-3.24,3.24,1.45,3.24,3.24Z"/>
            <circle class="cls-3" cx="302.25" cy="257.03" r="5.71"/>
            <path class="cls-3" d="m377.47,148.98c0,1.79-1.45,3.24-3.24,3.24s-3.24-1.45-3.24-3.24,1.45-3.24,3.24-3.24,3.24,1.45,3.24,3.24Z"/>
          </g>
        </g>
      </g>
    </g>
  </g>
</svg>